<svg xmlns="http://www.w3.org/2000/svg" viewBox="0 0 533 181" aria-label="Google">
  <g>
    <path fill="#000" d="M272.5 92.5c0-49.8 40.4-90.2 90.2-90.2 24.9 0 41.9 10.1 54.7 21.8l-22.4 21.6c-6.8-6.6-16-11.6-32.3-11.6-27.6 0-49.2 22.9-49.2 58.4s21.6 58.4 49.2 58.4c18 0 28.2-7.2 34.8-13.8 5.4-5.4 9-13.2 10.4-23.9h-45.2V87.4h70.2c.8 3.8 1.2 8.4 1.2 13.4 0 16.2-4.4 36.4-18.8 50.8-14 14.4-31.8 23.2-56.6 23.2-49.8 0-90.2-40.4-90.2-90.2z"/>
    <path fill="#000" d="M123.6 67.2c-30.4 0-55.2 24.8-55.2 55.2s24.8 55.2 55.2 55.2 55.2-24.8 55.2-55.2-24.8-55.2-55.2-55.2zm0 88.2c-18.2 0-33-15.2-33-33s14.8-33 33-33 33 15.2 33 33-14.8 33-33 33z"/>
    <circle cx="41.8" cy="111.6" r="21.4" fill="#000"/>
  </g>
</svg>
