<svg xmlns="http://www.w3.org/2000/svg" viewBox="0 0 272 92" role="img" aria-label="Google">
  <path fill="#111"
    d="M115.75 47.05c0-14.21 10.88-24.45 24.38-24.45 6.73 0 11.35 2.74 14.82 5.93l-4.02 3.98c-2.44-2.32-5.72-4.11-10.8-4.11-9.2 0-16.43 7.43-16.43 18.65 0 11.22 7.23 18.65 16.43 18.65 5.99 0 9.4-2.39 11.6-4.59 1.8-1.8 2.99-4.38 3.46-7.91h-15.06v-6.86h21.7c.23 1.15.34 2.53.34 4.02 0 4.82-1.32 10.79-5.6 15.06-4.15 4.38-9.44 6.68-16.43 6.68-13.5 0-24.38-10.99-24.38-24.45z"/>
  <path fill="#111"
    d="M185.98 38.94c9.47 0 17.03 7.22 17.03 16.97 0 9.75-7.56 16.97-17.03 16.97s-17.03-7.22-17.03-16.97c0-9.75 7.56-16.97 17.03-16.97zm0 27.35c5.17 0 9.58-4.27 9.58-10.38 0-6.11-4.41-10.38-9.58-10.38-5.17 0-9.58 4.27-9.58 10.38 0 6.11 4.41 10.38 9.58 10.38z"/>
  <path fill="#111"
    d="M230.44 38.94c9.47 0 17.03 7.22 17.03 16.97 0 9.75-7.56 16.97-17.03 16.97-9.47 0-17.03-7.22-17.03-16.97 0-9.75 7.56-16.97 17.03-16.97zm0 27.35c5.17 0 9.58-4.27 9.58-10.38 0-6.11-4.41-10.38-9.58-10.38-5.17 0-9.58 4.27-9.58 10.38 0 6.11 4.41 10.38 9.58 10.38z"/>
</svg>
