<svg xmlns="http://www.w3.org/2000/svg" viewBox="0 0 533 181" role="img" aria-label="Google">
  <path fill="#111" d="M272.5 92.5c0-49.8 40.4-90.2 90.2-90.2 24.9 0 41.9 10.1 54.7 21.8l-22.4 21.6c-6.8-6.6-16-11.6-32.3-11.6-27.6 0-49.2 22.9-49.2 58.4 0 35.6 21.6 58.4 49.2 58.4 18 0 28.2-7.2 34.8-13.8 5.4-5.4 9-13.2 10.4-23.9h-45.2V87.4h70.2c.8 3.8 1.2 8.4 1.2 13.4 0 16.2-4.4 36.4-18.8 50.8-14 14.4-31.8 23.2-56.6 23.2-49.8 0-90.2-40.4-90.2-90.2z"/>
  <path fill="#111" d="M123.6 67.2c-30.4 0-55.2 24.8-55.2 55.2 0 30.4 24.8 55.2 55.2 55.2 30.4 0 55.2-24.8 55.2-55.2 0-30.4-24.8-55.2-55.2-55.2zm0 88.2c-18.2 0-33-15.2-33-33 0-17.8 14.8-33 33-33 18.2 0 33 15.2 33 33 0 17.8-14.8 33-33 33z"/>
  <path fill="#111" d="M41.8 90.2c-11.8 0-21.4 9.6-21.4 21.4S30 133 41.8 133s21.4-9.6 21.4-21.4S53.6 90.2 41.8 90.2z"/>
</svg>
