<svg width="758" height="648" version="1.1" xmlns="http://www.w3.org/2000/svg" desc="Created with imagetracer.js version 1.2.6" ><path fill="rgb(0,0,0)" stroke="rgb(0,0,0)" stroke-width="1" opacity="0" d="M 0 0 L 758 0 L 758 648 L 0 648 L 0 0 Z M 466 64 L 463 65 L 461 74 L 464 100 L 482 156 L 484 167 L 479 168 L 474 160 L 455 104 L 444 84 Q 438 75 429 71 Q 424 70 423 73 Q 418 77 417 86 Q 416 108 424 123 L 431 136 Q 447 155 460 179 L 457 181 L 453 181 Q 430 158 401 141 Q 380 129 352 125 Q 310 123 286 137 Q 288 120 282 110 L 280 109 Q 256 110 245 122 Q 234 129 231 144 Q 230 157 236 164 Q 243 174 261 174 L 241 191 Q 209 216 195 258 Q 194 266 196 271 L 201 274 L 206 273 Q 221 259 240 247 L 266 233 Q 291 220 328 218 Q 370 218 399 232 Q 437 250 466 278 Q 486 298 502 323 Q 510 334 525 339 L 534 338 Q 538 335 539 329 Q 539 310 531 300 Q 518 279 501 263 L 500 258 Q 521 255 536 244 Q 543 239 545 230 Q 545 205 530 195 L 503 171 L 504 166 Q 510 108 489 78 Q 482 66 466 64 Z M 100 334 L 92 338 L 89 343 L 88 365 L 87 366 Q 83 439 92 499 L 96 501 Q 105 502 109 500 Q 117 473 132 452 Q 135 444 145 443 Q 149 446 149 453 Q 148 470 151 483 L 157 495 L 169 501 Q 188 503 196 494 L 202 487 Q 211 497 228 501 Q 256 503 269 490 Q 280 481 283 464 Q 284 443 274 434 Q 263 419 241 416 Q 218 415 207 426 Q 193 435 190 455 Q 189 467 193 475 Q 189 481 180 482 Q 176 479 175 474 L 174 438 L 169 423 Q 165 418 159 416 Q 144 416 138 423 Q 122 437 113 459 L 112 459 Q 115 432 114 402 L 115 401 Q 118 366 113 339 Q 110 333 100 334 Z M 583 402 L 579 403 Q 572 407 571 416 Q 570 432 580 438 Q 575 456 564 469 Q 555 479 540 482 Q 523 484 517 477 L 512 470 L 512 468 L 519 470 Q 541 473 552 464 Q 560 459 562 448 Q 563 434 556 428 Q 548 419 534 417 Q 507 416 496 429 Q 485 438 482 454 Q 481 476 492 487 Q 503 499 523 502 Q 552 504 565 490 Q 583 472 593 444 Q 600 448 612 447 L 613 449 L 603 477 Q 602 489 607 495 Q 612 502 625 503 Q 636 503 643 497 Q 657 485 665 467 Q 667 455 664 449 L 661 447 L 645 472 Q 642 480 632 482 Q 630 485 628 481 Q 632 460 641 445 L 640 433 L 632 426 Q 610 427 596 422 Q 597 413 593 408 Q 590 403 583 402 Z M 295 416 L 293 417 Q 288 420 289 429 Q 286 455 287 485 L 286 486 Q 284 536 291 578 Q 295 583 304 584 Q 311 583 315 579 Q 317 535 313 499 L 314 496 L 327 501 Q 353 504 365 492 Q 377 483 381 466 Q 383 442 371 433 Q 360 418 338 416 Q 319 416 310 424 Q 307 425 308 419 Q 305 414 295 416 Z M 392 416 Q 387 418 387 425 Q 384 446 385 472 L 384 473 Q 382 529 388 578 Q 393 583 402 584 Q 408 583 412 580 L 413 576 Q 415 538 411 507 L 412 496 L 424 501 Q 452 503 465 490 Q 476 481 479 464 Q 479 445 471 436 Q 460 419 436 416 Q 416 415 407 424 L 406 420 Q 403 413 392 416 Z " /><path fill="rgb(0,0,0)" stroke="rgb(0,0,0)" stroke-width="1" opacity="0" d="M 234.5 436 Q 245.796 436.204 250 443.5 Q 255.5 450 255 462.5 Q 253.25 472.75 246.5 478 Q 242.333 482.333 232.5 481 L 223 474.5 Q 216.167 468.333 218 453.5 Q 220.125 443.625 227.5 439 L 234.5 436 Z " /><path fill="rgb(0,0,0)" stroke="rgb(0,0,0)" stroke-width="1" opacity="0" d="M 331.5 436 Q 342.367 436.133 347 442.5 Q 354.167 449.333 352 465.5 Q 349.55 474.55 342.5 479 Q 337.833 482.833 327.5 481 Q 319.15 478.85 315 472.5 Q 311.206 466.794 311 457.5 Q 311.905 447.288 317 442 Q 322.055 437.282 331.5 436 Z " /><path fill="rgb(0,0,0)" stroke="rgb(0,0,0)" stroke-width="1" opacity="0" d="M 428.5 436 Q 441.541 435.959 446 444.5 Q 451.692 450.808 450 464.5 Q 448.107 473.607 441.5 478 Q 436.667 482.667 425.5 481 L 414 475 Q 408.095 468.696 409 454.5 Q 410.786 444.786 417.5 440 L 428.5 436 Z " /><path fill="rgb(0,0,0)" stroke="rgb(0,0,0)" stroke-width="1" opacity="0" d="M 527.5 436 Q 535.861 436.139 539 441.5 L 540 447.5 L 535.5 453 Q 527.917 457.917 514.5 457 L 510 456 Q 510.446 446.241 516 441 Q 519.92 437.201 527.5 436 Z " /><path fill="rgb(244,100,100)" stroke="rgb(244,100,100)" stroke-width="1" opacity="0.5019607843137255" d="M 465.5 64 L 471 64.5 Q 464.708 63.708 463 67.5 L 462.5 70 L 462 67.5 L 463 65 L 465.5 64 Z " /><path fill="rgb(244,100,100)" stroke="rgb(244,100,100)" stroke-width="1" opacity="0.5019607843137255" d="M 472.5 65 Q 483.65 68.35 489 77.5 L 479.5 69 Q 471.8 68.2 472.5 65 Z " /><path fill="rgb(244,100,100)" stroke="rgb(244,100,100)" stroke-width="1" opacity="0.5019607843137255" d="M 425.5 71 Q 438.071 73.929 444 83.5 L 448 89.5 L 446 88.5 L 435.5 76 Q 433.045 71.455 425.5 72 L 424 72.5 L 425.5 71 Z " /><path fill="rgb(244,100,100)" stroke="rgb(244,100,100)" stroke-width="1" opacity="0.5019607843137255" d="M 422.5 73 L 422 74.5 L 420.5 77 L 421 75.5 L 422.5 73 Z " /><path fill="rgb(244,100,100)" stroke="rgb(244,100,100)" stroke-width="1" opacity="0.5019607843137255" d="M 461.5 73 L 462 76.5 L 461 76.5 L 461.5 73 Z " /><path fill="rgb(244,100,100)" stroke="rgb(244,100,100)" stroke-width="1" opacity="0.5019607843137255" d="M 419.5 78 L 420 79.5 L 418.5 83 L 418 80.5 L 419.5 78 Z " /><path fill="rgb(244,100,100)" stroke="rgb(244,100,100)" stroke-width="1" opacity="0.5019607843137255" d="M 489.5 79 L 490.5 81 L 489.5 79 Z " /><path fill="rgb(244,100,100)" stroke="rgb(244,100,100)" stroke-width="1" opacity="0.5019607843137255" d="M 462.5 81 L 463 87.5 L 462 87.5 L 462.5 81 Z " /><path fill="rgb(244,100,100)" stroke="rgb(244,100,100)" stroke-width="1" opacity="0.5019607843137255" d="M 491.5 82 L 496 90.5 L 495 90.5 L 491.5 82 Z " /><path fill="rgb(244,100,100)" stroke="rgb(244,100,100)" stroke-width="1" opacity="0.5019607843137255" d="M 417.5 85 L 418 97.5 L 417 97.5 L 417.5 85 Z " /><path fill="rgb(244,100,100)" stroke="rgb(244,100,100)" stroke-width="1" opacity="0.5019607843137255" d="M 463.5 90 L 464 93.5 L 463 93.5 L 463.5 90 Z " /><path fill="rgb(244,100,100)" stroke="rgb(244,100,100)" stroke-width="1" opacity="0.5019607843137255" d="M 448.5 91 L 452 97.5 L 451 97.5 L 448.5 91 Z " /><path fill="rgb(244,100,100)" stroke="rgb(244,100,100)" stroke-width="1" opacity="0.5019607843137255" d="M 496.5 92 L 498 95.5 L 497 95.5 L 496.5 92 Z " /><path fill="rgb(244,100,100)" stroke="rgb(244,100,100)" stroke-width="1" opacity="0.5019607843137255" d="M 464.5 96 L 465 99.5 L 464 99.5 L 464.5 96 Z " /><path fill="rgb(244,100,100)" stroke="rgb(244,100,100)" stroke-width="1" opacity="0.5019607843137255" d="M 498.5 97 L 500 102.5 L 499 102.5 L 498.5 97 Z " /><path fill="rgb(244,100,100)" stroke="rgb(244,100,100)" stroke-width="1" opacity="0.5019607843137255" d="M 452.5 99 L 455 104.5 L 454 104.5 L 452.5 99 Z " /><path fill="rgb(244,100,100)" stroke="rgb(244,100,100)" stroke-width="1" opacity="0.5019607843137255" d="M 418.5 100 L 419 103.5 L 418 103.5 L 418.5 100 Z " /><path fill="rgb(244,100,100)" stroke="rgb(244,100,100)" stroke-width="1" opacity="0.5019607843137255" d="M 465.5 101 L 466 103.5 L 465 103.5 L 465.5 101 Z " /><path fill="rgb(244,100,100)" stroke="rgb(244,100,100)" stroke-width="1" opacity="0.5019607843137255" d="M 500.5 104 L 501 106.5 L 500 106.5 L 500.5 104 Z " /><path fill="rgb(244,100,100)" stroke="rgb(244,100,100)" stroke-width="1" opacity="0.5019607843137255" d="M 419.5 105 L 421 111.5 L 420 111.5 L 419.5 105 Z " /><path fill="rgb(244,100,100)" stroke="rgb(244,100,100)" stroke-width="1" opacity="0.5019607843137255" d="M 466.5 105 L 468 110.5 L 467 110.5 L 466.5 105 Z " /><path fill="rgb(244,100,100)" stroke="rgb(244,100,100)" stroke-width="1" opacity="0.5019607843137255" d="M 455.5 106 L 457 109.5 L 456 109.5 L 455.5 106 Z " /><path fill="rgb(244,100,100)" stroke="rgb(244,100,100)" stroke-width="1" opacity="0.5019607843137255" d="M 501.5 108 L 502 112.5 L 501 112.5 L 501.5 108 Z " /><path fill="rgb(244,100,100)" stroke="rgb(244,100,100)" stroke-width="1" opacity="0.5019607843137255" d="M 272.5 109 Q 279.313 107.688 282 110.5 L 280.5 111 Q 278.75 108.25 272.5 110 L 272.5 109 Z " /><path fill="rgb(244,100,100)" stroke="rgb(244,100,100)" stroke-width="1" opacity="0.5019607843137255" d="M 268.5 110 L 271 110.5 L 268.5 111 L 268.5 110 Z " /><path fill="rgb(244,100,100)" stroke="rgb(244,100,100)" stroke-width="1" opacity="0.5019607843137255" d="M 264.5 111 L 267 111.5 L 262.5 113 L 262.5 112 L 264.5 111 Z " /><path fill="rgb(244,100,100)" stroke="rgb(244,100,100)" stroke-width="1" opacity="0.5019607843137255" d="M 282.5 112 L 284 114.5 L 283 114.5 L 282.5 112 Z " /><path fill="rgb(244,100,100)" stroke="rgb(244,100,100)" stroke-width="1" opacity="0.5019607843137255" d="M 259.5 113 L 261 113.5 Q 248.208 118.208 240 127.5 L 233.5 138 L 233 136.5 L 244.5 122 L 259.5 113 Z " /><path fill="rgb(244,100,100)" stroke="rgb(244,100,100)" stroke-width="1" opacity="0.5019607843137255" d="M 458.5 114 L 461 120.5 L 460 120.5 L 458.5 114 Z " /><path fill="rgb(244,100,100)" stroke="rgb(244,100,100)" stroke-width="1" opacity="0.5019607843137255" d="M 502.5 114 L 503 119.5 L 502 119.5 L 502.5 114 Z " /><path fill="rgb(244,100,100)" stroke="rgb(244,100,100)" stroke-width="1" opacity="0.5019607843137255" d="M 284.5 116 L 285 118.5 L 284 118.5 L 284.5 116 Z " /><path fill="rgb(244,100,100)" stroke="rgb(244,100,100)" stroke-width="1" opacity="0.5019607843137255" d="M 422.5 116 L 424 119.5 L 423 119.5 L 422.5 116 Z " /><path fill="rgb(244,100,100)" stroke="rgb(244,100,100)" stroke-width="1" opacity="0.5019607843137255" d="M 470.5 118 L 475 132.5 L 474 132.5 Q 468.292 126.042 470.5 118 Z " /><path fill="rgb(244,100,100)" stroke="rgb(244,100,100)" stroke-width="1" opacity="0.5019607843137255" d="M 285.5 121 L 286 128.5 L 285 128.5 L 285.5 121 Z " /><path fill="rgb(244,100,100)" stroke="rgb(244,100,100)" stroke-width="1" opacity="0.5019607843137255" d="M 424.5 121 L 430 131.5 L 428 130.5 Q 422.167 126.333 424.5 121 Z " /><path fill="rgb(244,100,100)" stroke="rgb(244,100,100)" stroke-width="1" opacity="0.5019607843137255" d="M 503.5 122 L 504 131.5 L 503 131.5 L 503.5 122 Z " /><path fill="rgb(244,100,100)" stroke="rgb(244,100,100)" stroke-width="1" opacity="0.5019607843137255" d="M 327.5 125 L 352 125.5 L 327.5 126 L 327.5 125 Z " /><path fill="rgb(244,100,100)" stroke="rgb(244,100,100)" stroke-width="1" opacity="0.5019607843137255" d="M 320.5 126 L 325 126.5 L 320.5 127 L 320.5 126 Z " /><path fill="rgb(244,100,100)" stroke="rgb(244,100,100)" stroke-width="1" opacity="0.5019607843137255" d="M 354.5 126 L 359 126.5 L 354.5 127 L 354.5 126 Z " /><path fill="rgb(244,100,100)" stroke="rgb(244,100,100)" stroke-width="1" opacity="0.5019607843137255" d="M 315.5 127 L 319 127.5 L 315.5 128 L 315.5 127 Z " /><path fill="rgb(244,100,100)" stroke="rgb(244,100,100)" stroke-width="1" opacity="0.5019607843137255" d="M 360.5 127 L 364 127.5 L 360.5 128 L 360.5 127 Z " /><path fill="rgb(244,100,100)" stroke="rgb(244,100,100)" stroke-width="1" opacity="0.5019607843137255" d="M 311.5 128 L 314 128.5 L 308.5 130 L 308.5 129 L 311.5 128 Z " /><path fill="rgb(244,100,100)" stroke="rgb(244,100,100)" stroke-width="1" opacity="0.5019607843137255" d="M 365.5 128 L 368 128.5 L 365.5 129 L 365.5 128 Z " /><path fill="rgb(244,100,100)" stroke="rgb(244,100,100)" stroke-width="1" opacity="0.5019607843137255" d="M 463.5 128 L 471 149.5 L 470 149.5 L 463.5 128 Z " /><path fill="rgb(244,100,100)" stroke="rgb(244,100,100)" stroke-width="1" opacity="0.5019607843137255" d="M 369.5 129 L 375 130.5 L 372.5 131 Q 368.75 130.75 369.5 129 Z " /><path fill="rgb(244,100,100)" stroke="rgb(244,100,100)" stroke-width="1" opacity="0.5019607843137255" d="M 299.5 132 L 301 132.5 L 297.5 134 L 297.5 133 L 299.5 132 Z " /><path fill="rgb(244,100,100)" stroke="rgb(244,100,100)" stroke-width="1" opacity="0.5019607843137255" d="M 379.5 132 L 388 135.5 L 386.5 136 Q 378.8 135.2 379.5 132 Z " /><path fill="rgb(244,100,100)" stroke="rgb(244,100,100)" stroke-width="1" opacity="0.5019607843137255" d="M 430.5 133 Q 447.477 154.023 461 178.5 Q 459.656 182.656 453.5 182 L 453.5 181 Q 458.625 181.625 460 178.5 L 458 173.5 Q 440.912 154.124 430.5 133 Z " /><path fill="rgb(244,100,100)" stroke="rgb(244,100,100)" stroke-width="1" opacity="0.5019607843137255" d="M 294.5 134 L 296 134.5 L 290.5 137 L 290.5 136 L 294.5 134 Z " /><path fill="rgb(244,100,100)" stroke="rgb(244,100,100)" stroke-width="1" opacity="0.5019607843137255" d="M 389.5 136 Q 408.003 143.497 422 155.5 L 419.5 154 Q 406.253 143.747 389.5 137 L 389.5 136 Z " /><path fill="rgb(244,100,100)" stroke="rgb(244,100,100)" stroke-width="1" opacity="0.5019607843137255" d="M 286.5 137 L 289 137.5 L 286.5 138 L 286.5 137 Z " /><path fill="rgb(244,100,100)" stroke="rgb(244,100,100)" stroke-width="1" opacity="0.5019607843137255" d="M 232.5 139 L 233 141.5 L 232 141.5 L 232.5 139 Z " /><path fill="rgb(244,100,100)" stroke="rgb(244,100,100)" stroke-width="1" opacity="0.5019607843137255" d="M 231.5 143 L 232 152.5 L 231 152.5 L 231.5 143 Z " /><path fill="rgb(244,100,100)" stroke="rgb(244,100,100)" stroke-width="1" opacity="0.5019607843137255" d="M 479.5 146 L 481 151.5 L 480 151.5 L 479.5 146 Z " /><path fill="rgb(244,100,100)" stroke="rgb(244,100,100)" stroke-width="1" opacity="0.5019607843137255" d="M 503.5 153 L 504 165.5 L 503 165.5 L 503.5 153 Z " /><path fill="rgb(244,100,100)" stroke="rgb(244,100,100)" stroke-width="1" opacity="0.5019607843137255" d="M 423.5 156 L 452 180.5 L 450.5 180 L 426.5 160 L 423.5 156 Z " /><path fill="rgb(244,100,100)" stroke="rgb(244,100,100)" stroke-width="1" opacity="0.5019607843137255" d="M 482.5 156 L 483 158.5 L 482 158.5 L 482.5 156 Z " /><path fill="rgb(244,100,100)" stroke="rgb(244,100,100)" stroke-width="1" opacity="0.5019607843137255" d="M 233.5 157 Q 236.075 163.925 241.5 168 L 251 171.5 L 247.5 172 Q 240.083 169.417 236 163.5 Q 231.625 160.875 233.5 157 Z " /><path fill="rgb(244,100,100)" stroke="rgb(244,100,100)" stroke-width="1" opacity="0.5019607843137255" d="M 474.5 160 L 478.5 168 L 480 168.5 L 477 169 L 474.5 160 Z " /><path fill="rgb(244,100,100)" stroke="rgb(244,100,100)" stroke-width="1" opacity="0.5019607843137255" d="M 483.5 160 L 484 162.5 L 483 162.5 L 483.5 160 Z " /><path fill="rgb(244,100,100)" stroke="rgb(244,100,100)" stroke-width="1" opacity="0.5019607843137255" d="M 484.5 164 L 485 166.5 L 484 166.5 L 484.5 164 Z " /><path fill="rgb(244,100,100)" stroke="rgb(244,100,100)" stroke-width="1" opacity="0.5019607843137255" d="M 503.5 171 L 530 194.5 L 539 206.5 L 537 205.5 L 520.5 186 L 504.5 173 L 503.5 171 Z " /><path fill="rgb(244,100,100)" stroke="rgb(244,100,100)" stroke-width="1" opacity="0.5019607843137255" d="M 252.5 172 L 260 172.5 L 252.5 173 L 252.5 172 Z " /><path fill="rgb(244,100,100)" stroke="rgb(244,100,100)" stroke-width="1" opacity="0.5019607843137255" d="M 261.5 173 L 262 174.5 Q 241.705 189.205 225 207.5 Q 211.907 221.407 202.5 239 L 203 237.5 Q 217.785 210.285 240.5 191 L 261.5 173 Z " /><path fill="rgb(244,100,100)" stroke="rgb(244,100,100)" stroke-width="1" opacity="0.5019607843137255" d="M 539.5 208 L 543 214.5 L 542 214.5 L 539.5 208 Z " /><path fill="rgb(244,100,100)" stroke="rgb(244,100,100)" stroke-width="1" opacity="0.5019607843137255" d="M 543.5 216 Q 546.5 220.5 545 229.5 L 544 229.5 Q 544.5 220.5 543.5 216 Z " /><path fill="rgb(244,100,100)" stroke="rgb(244,100,100)" stroke-width="1" opacity="0.5019607843137255" d="M 317.5 218 L 327 218.5 L 317.5 219 L 317.5 218 Z " /><path fill="rgb(244,100,100)" stroke="rgb(244,100,100)" stroke-width="1" opacity="0.5019607843137255" d="M 340.5 218 L 350 218.5 L 340.5 219 L 340.5 218 Z " /><path fill="rgb(244,100,100)" stroke="rgb(244,100,100)" stroke-width="1" opacity="0.5019607843137255" d="M 309.5 219 L 315 219.5 L 309.5 220 L 309.5 219 Z " /><path fill="rgb(244,100,100)" stroke="rgb(244,100,100)" stroke-width="1" opacity="0.5019607843137255" d="M 352.5 219 L 357 219.5 L 352.5 220 L 352.5 219 Z " /><path fill="rgb(244,100,100)" stroke="rgb(244,100,100)" stroke-width="1" opacity="0.5019607843137255" d="M 304.5 220 L 308 220.5 L 304.5 221 L 304.5 220 Z " /><path fill="rgb(244,100,100)" stroke="rgb(244,100,100)" stroke-width="1" opacity="0.5019607843137255" d="M 359.5 220 L 363 220.5 L 359.5 221 L 359.5 220 Z " /><path fill="rgb(244,100,100)" stroke="rgb(244,100,100)" stroke-width="1" opacity="0.5019607843137255" d="M 298.5 221 L 302 221.5 L 295.5 223 L 295.5 222 L 298.5 221 Z " /><path fill="rgb(244,100,100)" stroke="rgb(244,100,100)" stroke-width="1" opacity="0.5019607843137255" d="M 364.5 221 L 368 221.5 L 364.5 222 L 364.5 221 Z " /><path fill="rgb(244,100,100)" stroke="rgb(244,100,100)" stroke-width="1" opacity="0.5019607843137255" d="M 369.5 222 L 372 222.5 L 369.5 223 L 369.5 222 Z " /><path fill="rgb(244,100,100)" stroke="rgb(244,100,100)" stroke-width="1" opacity="0.5019607843137255" d="M 291.5 223 L 294 223.5 L 291.5 224 L 291.5 223 Z " /><path fill="rgb(244,100,100)" stroke="rgb(244,100,100)" stroke-width="1" opacity="0.5019607843137255" d="M 373.5 223 L 379 224.5 L 376.5 225 Q 372.75 224.75 373.5 223 Z " /><path fill="rgb(244,100,100)" stroke="rgb(244,100,100)" stroke-width="1" opacity="0.5019607843137255" d="M 287.5 224 L 290 224.5 L 287.5 225 L 287.5 224 Z " /><path fill="rgb(244,100,100)" stroke="rgb(244,100,100)" stroke-width="1" opacity="0.5019607843137255" d="M 284.5 225 L 286 225.5 L 271.5 231 L 271.5 230 L 284.5 225 Z " /><path fill="rgb(244,100,100)" stroke="rgb(244,100,100)" stroke-width="1" opacity="0.5019607843137255" d="M 389.5 228 L 393 229.5 L 391.5 230 L 389.5 228 Z " /><path fill="rgb(244,100,100)" stroke="rgb(244,100,100)" stroke-width="1" opacity="0.5019607843137255" d="M 394.5 230 L 398 231.5 L 396.5 232 L 394.5 230 Z " /><path fill="rgb(244,100,100)" stroke="rgb(244,100,100)" stroke-width="1" opacity="0.5019607843137255" d="M 268.5 231 L 270 231.5 L 266.5 233 L 266.5 232 L 268.5 231 Z " /><path fill="rgb(244,100,100)" stroke="rgb(244,100,100)" stroke-width="1" opacity="0.5019607843137255" d="M 399.5 232 L 416 240.5 L 414.5 240 L 399.5 233 L 399.5 232 Z " /><path fill="rgb(244,100,100)" stroke="rgb(244,100,100)" stroke-width="1" opacity="0.5019607843137255" d="M 263.5 233 L 265 233.5 L 250.5 241 L 251.5 239 L 263.5 233 Z " /><path fill="rgb(244,100,100)" stroke="rgb(244,100,100)" stroke-width="1" opacity="0.5019607843137255" d="M 542.5 234 L 543 235.5 L 535.5 244 L 520.5 252 L 520.5 251 Q 532.485 246.985 540 238.5 L 542.5 234 Z " /><path fill="rgb(244,100,100)" stroke="rgb(244,100,100)" stroke-width="1" opacity="0.5019607843137255" d="M 248.5 241 L 247.5 243 Q 223.663 255.663 204.5 273 L 204.5 272 Q 224.375 254.375 248.5 241 Z " /><path fill="rgb(244,100,100)" stroke="rgb(244,100,100)" stroke-width="1" opacity="0.5019607843137255" d="M 417.5 241 Q 449.19 258.81 473 284.5 Q 490.191 310.809 512.5 332 L 518 335.5 L 516.5 335 Q 507 331 502 322.5 Q 485.854 298.146 465.5 278 Q 443.543 256.63 417.5 241 Z " /><path fill="rgb(244,100,100)" stroke="rgb(244,100,100)" stroke-width="1" opacity="0.5019607843137255" d="M 200.5 242 L 201 243.5 L 196.5 256 L 196 252.5 L 200.5 242 Z " /><path fill="rgb(244,100,100)" stroke="rgb(244,100,100)" stroke-width="1" opacity="0.5019607843137255" d="M 514.5 253 L 516 253.5 L 511.5 255 L 511.5 254 L 514.5 253 Z " /><path fill="rgb(244,100,100)" stroke="rgb(244,100,100)" stroke-width="1" opacity="0.5019607843137255" d="M 507.5 255 L 510 255.5 L 504.5 257 L 504.5 256 L 507.5 255 Z " /><path fill="rgb(244,100,100)" stroke="rgb(244,100,100)" stroke-width="1" opacity="0.5019607843137255" d="M 195.5 257 L 196 267.5 L 195 267.5 L 195.5 257 Z " /><path fill="rgb(244,100,100)" stroke="rgb(244,100,100)" stroke-width="1" opacity="0.5019607843137255" d="M 500.5 257 L 503 257.5 L 500 258 Q 499.4 263.767 504 266.5 L 525 290.5 L 535 308.5 L 534 308.5 L 524 290.5 Q 507.7 278.3 499 258.5 L 500.5 257 Z " /><path fill="rgb(244,100,100)" stroke="rgb(244,100,100)" stroke-width="1" opacity="0.5019607843137255" d="M 196.5 269 L 199 272.5 L 196 270.5 L 196.5 269 Z " /><path fill="rgb(244,100,100)" stroke="rgb(244,100,100)" stroke-width="1" opacity="0.5019607843137255" d="M 200.5 273 L 203 273.5 L 200.5 274 L 200.5 273 Z " /><path fill="rgb(244,100,100)" stroke="rgb(244,100,100)" stroke-width="1" opacity="0.5019607843137255" d="M 535.5 310 L 537 314.5 L 536 314.5 L 535.5 310 Z " /><path fill="rgb(244,100,100)" stroke="rgb(244,100,100)" stroke-width="1" opacity="0.5019607843137255" d="M 537.5 316 L 538 319.5 L 537 319.5 L 537.5 316 Z " /><path fill="rgb(244,100,100)" stroke="rgb(244,100,100)" stroke-width="1" opacity="0.5019607843137255" d="M 538.5 321 L 539 328.5 L 538 328.5 L 538.5 321 Z " /><path fill="rgb(244,100,100)" stroke="rgb(244,100,100)" stroke-width="1" opacity="0.5019607843137255" d="M 537.5 330 L 538 332.5 L 533.5 338 L 532 337.5 L 536 334.5 L 537.5 330 Z " /><path fill="rgb(244,100,100)" stroke="rgb(244,100,100)" stroke-width="1" opacity="0.5019607843137255" d="M 99.5 334 Q 106.313 332.688 109 335.5 L 107.5 336 Q 105.75 333.25 99.5 335 L 97.5 336 L 97.5 335 L 99.5 334 Z " /><path fill="rgb(244,100,100)" stroke="rgb(244,100,100)" stroke-width="1" opacity="0.5019607843137255" d="M 94.5 336 L 96 336.5 L 91 339 L 90.5 341 L 90 339.5 L 94.5 336 Z " /><path fill="rgb(244,100,100)" stroke="rgb(244,100,100)" stroke-width="1" opacity="0.5019607843137255" d="M 110.5 336 L 112.5 339 L 110.5 336 Z " /><path fill="rgb(244,100,100)" stroke="rgb(244,100,100)" stroke-width="1" opacity="0.5019607843137255" d="M 524.5 338 L 531 338.5 L 524.5 339 L 524.5 338 Z " /><path fill="rgb(244,100,100)" stroke="rgb(244,100,100)" stroke-width="1" opacity="0.5019607843137255" d="M 113.5 340 L 114 346.5 L 113 346.5 L 113.5 340 Z " /><path fill="rgb(244,100,100)" stroke="rgb(244,100,100)" stroke-width="1" opacity="0.5019607843137255" d="M 89.5 342 L 90 347.5 L 89 347.5 L 89.5 342 Z " /><path fill="rgb(244,100,100)" stroke="rgb(244,100,100)" stroke-width="1" opacity="0.5019607843137255" d="M 88.5 351 L 89 360.5 L 88 360.5 L 88.5 351 Z " /><path fill="rgb(244,100,100)" stroke="rgb(244,100,100)" stroke-width="1" opacity="0.5019607843137255" d="M 114.5 353 L 115 400.5 L 114 400.5 L 114.5 353 Z " /><path fill="rgb(244,100,100)" stroke="rgb(244,100,100)" stroke-width="1" opacity="0.5019607843137255" d="M 87.5 365 L 88 383.5 L 87 383.5 L 87.5 365 Z " /><path fill="rgb(244,100,100)" stroke="rgb(244,100,100)" stroke-width="1" opacity="0.5019607843137255" d="M 578.5 403 L 580 403.5 L 574.5 408 L 578.5 403 Z " /><path fill="rgb(244,100,100)" stroke="rgb(244,100,100)" stroke-width="1" opacity="0.5019607843137255" d="M 585.5 403 Q 591.05 403.45 593 407.5 L 594 409.5 L 592 408.5 L 589.5 405 Q 584.7 405.05 585.5 403 Z " /><path fill="rgb(244,100,100)" stroke="rgb(244,100,100)" stroke-width="1" opacity="0.5019607843137255" d="M 113.5 409 L 114 427.5 L 113 427.5 L 113.5 409 Z " /><path fill="rgb(244,100,100)" stroke="rgb(244,100,100)" stroke-width="1" opacity="0.5019607843137255" d="M 595.5 414 L 596 418.5 L 595 418.5 L 595.5 414 Z " /><path fill="rgb(244,100,100)" stroke="rgb(244,100,100)" stroke-width="1" opacity="0.5019607843137255" d="M 571.5 415 L 572 421.5 L 571 421.5 L 571.5 415 Z " /><path fill="rgb(244,100,100)" stroke="rgb(244,100,100)" stroke-width="1" opacity="0.5019607843137255" d="M 153.5 416 L 159 416.5 L 153.5 417 L 153.5 416 Z " /><path fill="rgb(244,100,100)" stroke="rgb(244,100,100)" stroke-width="1" opacity="0.5019607843137255" d="M 232.5 416 L 241 416.5 L 232.5 417 L 232.5 416 Z " /><path fill="rgb(244,100,100)" stroke="rgb(244,100,100)" stroke-width="1" opacity="0.5019607843137255" d="M 294.5 416 L 297 416.5 L 294.5 417 L 294.5 416 Z " /><path fill="rgb(244,100,100)" stroke="rgb(244,100,100)" stroke-width="1" opacity="0.5019607843137255" d="M 302.5 416 L 308 418.5 L 307.5 420 L 307 418 Q 301.75 418.333 302.5 416 Z " /><path fill="rgb(244,100,100)" stroke="rgb(244,100,100)" stroke-width="1" opacity="0.5019607843137255" d="M 330.5 416 L 338 416.5 L 330.5 417 L 330.5 416 Z " /><path fill="rgb(244,100,100)" stroke="rgb(244,100,100)" stroke-width="1" opacity="0.5019607843137255" d="M 391.5 416 L 395 416.5 Q 390.312 416.313 389 419.5 L 388.5 422 L 388 419.5 L 391.5 416 Z " /><path fill="rgb(244,100,100)" stroke="rgb(244,100,100)" stroke-width="1" opacity="0.5019607843137255" d="M 400.5 416 Q 405.5 415.5 406 419.5 L 406.5 424 L 411.5 421 L 410.5 423 L 405 425 Q 406.5 418.708 402.5 417 Q 399.5 417.5 400.5 416 Z " /><path fill="rgb(244,100,100)" stroke="rgb(244,100,100)" stroke-width="1" opacity="0.5019607843137255" d="M 427.5 416 L 436 416.5 L 427.5 417 L 427.5 416 Z " /><path fill="rgb(244,100,100)" stroke="rgb(244,100,100)" stroke-width="1" opacity="0.5019607843137255" d="M 148.5 417 L 151 417.5 L 146.5 419 L 146.5 418 L 148.5 417 Z " /><path fill="rgb(244,100,100)" stroke="rgb(244,100,100)" stroke-width="1" opacity="0.5019607843137255" d="M 225.5 417 L 230 417.5 L 222.5 419 L 222.5 418 L 225.5 417 Z " /><path fill="rgb(244,100,100)" stroke="rgb(244,100,100)" stroke-width="1" opacity="0.5019607843137255" d="M 243.5 417 L 247 417.5 L 243.5 418 L 243.5 417 Z " /><path fill="rgb(244,100,100)" stroke="rgb(244,100,100)" stroke-width="1" opacity="0.5019607843137255" d="M 292.5 417 L 291.5 419 L 292.5 417 Z " /><path fill="rgb(244,100,100)" stroke="rgb(244,100,100)" stroke-width="1" opacity="0.5019607843137255" d="M 324.5 417 L 328 417.5 L 324.5 418 L 324.5 417 Z " /><path fill="rgb(244,100,100)" stroke="rgb(244,100,100)" stroke-width="1" opacity="0.5019607843137255" d="M 340.5 417 L 345 417.5 L 340.5 418 L 340.5 417 Z " /><path fill="rgb(244,100,100)" stroke="rgb(244,100,100)" stroke-width="1" opacity="0.5019607843137255" d="M 421.5 417 L 425 417.5 L 418.5 419 L 418.5 418 L 421.5 417 Z " /><path fill="rgb(244,100,100)" stroke="rgb(244,100,100)" stroke-width="1" opacity="0.5019607843137255" d="M 438.5 417 L 446 418.5 L 443.5 419 Q 437.667 419.333 438.5 417 Z " /><path fill="rgb(244,100,100)" stroke="rgb(244,100,100)" stroke-width="1" opacity="0.5019607843137255" d="M 522.5 417 L 534 417.5 L 522.5 418 L 522.5 417 Z " /><path fill="rgb(244,100,100)" stroke="rgb(244,100,100)" stroke-width="1" opacity="0.5019607843137255" d="M 163.5 418 L 169 422.5 L 171 427.5 L 170 427.5 L 165.5 420 L 163.5 418 Z " /><path fill="rgb(244,100,100)" stroke="rgb(244,100,100)" stroke-width="1" opacity="0.5019607843137255" d="M 248.5 418 L 251 418.5 L 248.5 419 L 248.5 418 Z " /><path fill="rgb(244,100,100)" stroke="rgb(244,100,100)" stroke-width="1" opacity="0.5019607843137255" d="M 320.5 418 L 323 418.5 L 308.5 425 L 308.5 424 L 320.5 418 Z " /><path fill="rgb(244,100,100)" stroke="rgb(244,100,100)" stroke-width="1" opacity="0.5019607843137255" d="M 346.5 418 L 356 421.5 L 354.5 422 L 346.5 419 L 346.5 418 Z " /><path fill="rgb(244,100,100)" stroke="rgb(244,100,100)" stroke-width="1" opacity="0.5019607843137255" d="M 516.5 418 L 520 418.5 L 516.5 419 L 516.5 418 Z " /><path fill="rgb(244,100,100)" stroke="rgb(244,100,100)" stroke-width="1" opacity="0.5019607843137255" d="M 536.5 418 L 539 418.5 L 536.5 419 L 536.5 418 Z " /><path fill="rgb(244,100,100)" stroke="rgb(244,100,100)" stroke-width="1" opacity="0.5019607843137255" d="M 143.5 419 L 145 419.5 L 142.5 421 L 143.5 419 Z " /><path fill="rgb(244,100,100)" stroke="rgb(244,100,100)" stroke-width="1" opacity="0.5019607843137255" d="M 252.5 419 L 256 420.5 L 254.5 421 L 252.5 419 Z " /><path fill="rgb(244,100,100)" stroke="rgb(244,100,100)" stroke-width="1" opacity="0.5019607843137255" d="M 415.5 419 L 417 419.5 L 413.5 421 L 413.5 420 L 415.5 419 Z " /><path fill="rgb(244,100,100)" stroke="rgb(244,100,100)" stroke-width="1" opacity="0.5019607843137255" d="M 540.5 419 L 545 420.5 L 543.5 421 Q 539.75 420.75 540.5 419 Z " /><path fill="rgb(244,100,100)" stroke="rgb(244,100,100)" stroke-width="1" opacity="0.5019607843137255" d="M 216.5 420 L 218 420.5 Q 206.208 425.208 199 434.5 L 192.5 448 L 192 445.5 Q 196.75 433.25 206.5 426 L 216.5 420 Z " /><path fill="rgb(244,100,100)" stroke="rgb(244,100,100)" stroke-width="1" opacity="0.5019607843137255" d="M 290.5 420 L 291 424.5 L 290 424.5 L 290.5 420 Z " /><path fill="rgb(244,100,100)" stroke="rgb(244,100,100)" stroke-width="1" opacity="0.5019607843137255" d="M 450.5 420 Q 463.75 424.75 471 435.5 L 474 440.5 L 472 439.5 Q 468.333 430.667 460.5 426 L 450.5 421 L 450.5 420 Z " /><path fill="rgb(244,100,100)" stroke="rgb(244,100,100)" stroke-width="1" opacity="0.5019607843137255" d="M 510.5 420 L 512 420.5 L 508.5 422 L 508.5 421 L 510.5 420 Z " /><path fill="rgb(244,100,100)" stroke="rgb(244,100,100)" stroke-width="1" opacity="0.5019607843137255" d="M 140.5 421 L 138.5 424 L 130 431.5 L 122.5 442 L 123 440.5 Q 128.404 429.904 137.5 423 L 140.5 421 Z " /><path fill="rgb(244,100,100)" stroke="rgb(244,100,100)" stroke-width="1" opacity="0.5019607843137255" d="M 257.5 421 L 260 422.5 L 258.5 422 L 257.5 421 Z " /><path fill="rgb(244,100,100)" stroke="rgb(244,100,100)" stroke-width="1" opacity="0.5019607843137255" d="M 546.5 421 L 556 427.5 L 560 434.5 L 559 434.5 L 555 427 L 546.5 422 L 546.5 421 Z " /><path fill="rgb(244,100,100)" stroke="rgb(244,100,100)" stroke-width="1" opacity="0.5019607843137255" d="M 357.5 422 L 371 432.5 Q 377.525 439.475 380 450.5 L 379 450.5 Q 375.822 436.678 366.5 429 Q 358.894 426.481 357.5 422 Z " /><path fill="rgb(244,100,100)" stroke="rgb(244,100,100)" stroke-width="1" opacity="0.5019607843137255" d="M 261.5 423 L 274 433.5 L 280 444.5 L 279 444.5 Q 275.661 433.839 267.5 428 Q 262.25 426.25 261.5 423 Z " /><path fill="rgb(244,100,100)" stroke="rgb(244,100,100)" stroke-width="1" opacity="0.5019607843137255" d="M 504.5 423 L 503.5 425 Q 494.667 428.667 490 436.5 L 485.5 445 L 485 443.5 L 495.5 429 L 504.5 423 Z " /><path fill="rgb(244,100,100)" stroke="rgb(244,100,100)" stroke-width="1" opacity="0.5019607843137255" d="M 572.5 423 Q 574.907 433.093 581 439.5 L 580 439.5 L 580 437.5 Q 574.417 433.583 572 426.5 L 572.5 423 Z " /><path fill="rgb(244,100,100)" stroke="rgb(244,100,100)" stroke-width="1" opacity="0.5019607843137255" d="M 599.5 423 L 602 423.5 L 599.5 424 L 599.5 423 Z " /><path fill="rgb(244,100,100)" stroke="rgb(244,100,100)" stroke-width="1" opacity="0.5019607843137255" d="M 387.5 424 L 388 431.5 L 387 431.5 L 387.5 424 Z " /><path fill="rgb(244,100,100)" stroke="rgb(244,100,100)" stroke-width="1" opacity="0.5019607843137255" d="M 603.5 424 L 608 424.5 L 603.5 425 L 603.5 424 Z " /><path fill="rgb(244,100,100)" stroke="rgb(244,100,100)" stroke-width="1" opacity="0.5019607843137255" d="M 610.5 425 L 625 425.5 L 610.5 426 L 610.5 425 Z " /><path fill="rgb(244,100,100)" stroke="rgb(244,100,100)" stroke-width="1" opacity="0.5019607843137255" d="M 628.5 426 Q 636.75 426.75 640 432.5 L 639.5 434 L 635.5 429 L 628.5 427 L 628.5 426 Z " /><path fill="rgb(244,100,100)" stroke="rgb(244,100,100)" stroke-width="1" opacity="0.5019607843137255" d="M 87.5 428 L 88 451.5 L 87 451.5 L 87.5 428 Z " /><path fill="rgb(244,100,100)" stroke="rgb(244,100,100)" stroke-width="1" opacity="0.5019607843137255" d="M 289.5 428 L 290 435.5 L 289 435.5 L 289.5 428 Z " /><path fill="rgb(244,100,100)" stroke="rgb(244,100,100)" stroke-width="1" opacity="0.5019607843137255" d="M 172.5 432 L 173 435.5 L 172 435.5 L 172.5 432 Z " /><path fill="rgb(244,100,100)" stroke="rgb(244,100,100)" stroke-width="1" opacity="0.5019607843137255" d="M 112.5 434 L 113 448.5 L 112 448.5 L 112.5 434 Z " /><path fill="rgb(244,100,100)" stroke="rgb(244,100,100)" stroke-width="1" opacity="0.5019607843137255" d="M 386.5 435 L 387 444.5 L 386 444.5 L 386.5 435 Z " /><path fill="rgb(244,100,100)" stroke="rgb(244,100,100)" stroke-width="1" opacity="0.5019607843137255" d="M 640.5 435 L 641 444.5 L 639.5 448 L 639 445.5 Q 642.45 442.95 640.5 435 Z " /><path fill="rgb(244,100,100)" stroke="rgb(244,100,100)" stroke-width="1" opacity="0.5019607843137255" d="M 231.5 436 L 234 436.5 Q 225.778 438.278 222 444.5 L 220.5 447 L 221 445.5 L 227.5 438 L 231.5 436 Z " /><path fill="rgb(244,100,100)" stroke="rgb(244,100,100)" stroke-width="1" opacity="0.5019607843137255" d="M 238.5 436 L 241 436.5 L 238.5 437 L 238.5 436 Z " /><path fill="rgb(244,100,100)" stroke="rgb(244,100,100)" stroke-width="1" opacity="0.5019607843137255" d="M 327.5 436 L 331 436.5 L 327.5 437 L 327.5 436 Z " /><path fill="rgb(244,100,100)" stroke="rgb(244,100,100)" stroke-width="1" opacity="0.5019607843137255" d="M 336.5 436 Q 344.875 436.625 348 442.5 L 352 451.5 L 351 451.5 Q 349.55 443.95 344.5 440 L 336.5 437 L 336.5 436 Z " /><path fill="rgb(244,100,100)" stroke="rgb(244,100,100)" stroke-width="1" opacity="0.5019607843137255" d="M 425.5 436 L 428 436.5 L 425.5 437 L 425.5 436 Z " /><path fill="rgb(244,100,100)" stroke="rgb(244,100,100)" stroke-width="1" opacity="0.5019607843137255" d="M 434.5 436 Q 443.375 437.625 447 444.5 L 450 452.5 L 449 452.5 Q 447.25 443.25 440.5 439 Q 433.75 438.75 434.5 436 Z " /><path fill="rgb(244,100,100)" stroke="rgb(244,100,100)" stroke-width="1" opacity="0.5019607843137255" d="M 523.5 436 L 527 436.5 L 521.5 438 L 521.5 437 L 523.5 436 Z " /><path fill="rgb(244,100,100)" stroke="rgb(244,100,100)" stroke-width="1" opacity="0.5019607843137255" d="M 530.5 436 Q 537.75 436.25 540 441.5 L 539.5 443 L 535.5 438 Q 529.667 438.333 530.5 436 Z " /><path fill="rgb(244,100,100)" stroke="rgb(244,100,100)" stroke-width="1" opacity="0.5019607843137255" d="M 173.5 437 L 174 444.5 L 173 444.5 L 173.5 437 Z " /><path fill="rgb(244,100,100)" stroke="rgb(244,100,100)" stroke-width="1" opacity="0.5019607843137255" d="M 242.5 437 L 245 438.5 L 243.5 438 L 242.5 437 Z " /><path fill="rgb(244,100,100)" stroke="rgb(244,100,100)" stroke-width="1" opacity="0.5019607843137255" d="M 421.5 437 L 424 437.5 Q 416.5 439 413 444.5 L 410.5 450 L 410 448.5 L 417.5 439 L 421.5 437 Z " /><path fill="rgb(244,100,100)" stroke="rgb(244,100,100)" stroke-width="1" opacity="0.5019607843137255" d="M 519.5 438 L 517.5 441 Q 515.25 440.25 516 442.5 L 511.5 449 L 511 447.5 L 516.5 440 L 519.5 438 Z " /><path fill="rgb(244,100,100)" stroke="rgb(244,100,100)" stroke-width="1" opacity="0.5019607843137255" d="M 246.5 439 L 253 447.5 L 252 447.5 L 246.5 439 Z " /><path fill="rgb(244,100,100)" stroke="rgb(244,100,100)" stroke-width="1" opacity="0.5019607843137255" d="M 320.5 439 L 318.5 442 Q 316.25 441.25 317 443.5 L 314 445.5 L 317.5 441 L 320.5 439 Z " /><path fill="rgb(244,100,100)" stroke="rgb(244,100,100)" stroke-width="1" opacity="0.5019607843137255" d="M 288.5 440 L 289 450.5 L 288 450.5 L 288.5 440 Z " /><path fill="rgb(244,100,100)" stroke="rgb(244,100,100)" stroke-width="1" opacity="0.5019607843137255" d="M 561.5 440 L 562 447.5 L 561 447.5 L 561.5 440 Z " /><path fill="rgb(244,100,100)" stroke="rgb(244,100,100)" stroke-width="1" opacity="0.5019607843137255" d="M 579.5 441 L 580 442.5 L 578.5 445 L 578 443.5 L 579.5 441 Z " /><path fill="rgb(244,100,100)" stroke="rgb(244,100,100)" stroke-width="1" opacity="0.5019607843137255" d="M 474.5 442 L 477 448.5 L 476 448.5 L 474.5 442 Z " /><path fill="rgb(244,100,100)" stroke="rgb(244,100,100)" stroke-width="1" opacity="0.5019607843137255" d="M 121.5 443 L 121 444.5 L 119.5 447 L 120 445.5 L 121.5 443 Z " /><path fill="rgb(244,100,100)" stroke="rgb(244,100,100)" stroke-width="1" opacity="0.5019607843137255" d="M 139.5 443 L 141 443.5 L 132 451.5 Q 122.657 464.157 116.5 480 L 116 478.5 Q 123.729 456.729 139.5 443 Z " /><path fill="rgb(244,100,100)" stroke="rgb(244,100,100)" stroke-width="1" opacity="0.5019607843137255" d="M 145.5 443 Q 149.875 444.625 149 451.5 L 148 451.5 Q 148.625 444.625 145.5 443 Z " /><path fill="rgb(244,100,100)" stroke="rgb(244,100,100)" stroke-width="1" opacity="0.5019607843137255" d="M 591 443 L 598 444.5 L 594.5 445 L 592.5 444 L 591 444.5 L 591 443 Z " /><path fill="rgb(244,100,100)" stroke="rgb(244,100,100)" stroke-width="1" opacity="0.5019607843137255" d="M 599.5 445 L 604 445.5 L 599.5 446 L 599.5 445 Z " /><path fill="rgb(244,100,100)" stroke="rgb(244,100,100)" stroke-width="1" opacity="0.5019607843137255" d="M 590.5 446 L 591 447.5 L 589.5 450 L 589 448.5 L 590.5 446 Z " /><path fill="rgb(244,100,100)" stroke="rgb(244,100,100)" stroke-width="1" opacity="0.5019607843137255" d="M 605.5 446 Q 612.5 444.5 614 448.5 L 612.5 453 L 612 451.5 L 613 448.5 Q 611.5 445.5 605.5 447 L 605.5 446 Z " /><path fill="rgb(244,100,100)" stroke="rgb(244,100,100)" stroke-width="1" opacity="0.5019607843137255" d="M 313.5 447 L 314 448.5 L 312.5 451 L 312 449.5 L 313.5 447 Z " /><path fill="rgb(244,100,100)" stroke="rgb(244,100,100)" stroke-width="1" opacity="0.5019607843137255" d="M 660.5 447 L 664 448.5 L 663.5 450 L 663 448 L 659 449.5 Q 651.753 466.753 639.5 479 L 631.5 483 L 631.5 482 Q 641.85 480.35 645 471.5 L 660.5 447 Z " /><path fill="rgb(244,100,100)" stroke="rgb(244,100,100)" stroke-width="1" opacity="0.5019607843137255" d="M 118.5 448 L 118 449.5 L 111.5 463 L 111 454.5 L 112 454.5 L 112.5 459 L 118.5 448 Z " /><path fill="rgb(244,100,100)" stroke="rgb(244,100,100)" stroke-width="1" opacity="0.5019607843137255" d="M 219.5 448 L 220 449.5 L 218.5 453 L 218 450.5 L 219.5 448 Z " /><path fill="rgb(244,100,100)" stroke="rgb(244,100,100)" stroke-width="1" opacity="0.5019607843137255" d="M 539.5 448 L 540 449.5 Q 536.875 454.875 529.5 456 L 529.5 455 Q 536.125 454.125 539 449.5 L 539.5 448 Z " /><path fill="rgb(244,100,100)" stroke="rgb(244,100,100)" stroke-width="1" opacity="0.5019607843137255" d="M 576.5 448 L 577 449.5 L 573.5 455 L 574 453.5 L 576.5 448 Z " /><path fill="rgb(244,100,100)" stroke="rgb(244,100,100)" stroke-width="1" opacity="0.5019607843137255" d="M 191.5 449 L 192 451.5 L 191 451.5 L 191.5 449 Z " /><path fill="rgb(244,100,100)" stroke="rgb(244,100,100)" stroke-width="1" opacity="0.5019607843137255" d="M 281.5 449 L 282 452.5 L 281 452.5 L 281.5 449 Z " /><path fill="rgb(244,100,100)" stroke="rgb(244,100,100)" stroke-width="1" opacity="0.5019607843137255" d="M 483.5 449 L 484 451.5 L 483 451.5 L 483.5 449 Z " /><path fill="rgb(244,100,100)" stroke="rgb(244,100,100)" stroke-width="1" opacity="0.5019607843137255" d="M 560.5 449 L 561 451.5 L 560 451.5 L 560.5 449 Z " /><path fill="rgb(244,100,100)" stroke="rgb(244,100,100)" stroke-width="1" opacity="0.5019607843137255" d="M 638.5 449 L 639 450.5 L 636.5 456 L 636 454.5 L 638.5 449 Z " /><path fill="rgb(244,100,100)" stroke="rgb(244,100,100)" stroke-width="1" opacity="0.5019607843137255" d="M 385.5 450 L 386 463.5 L 385 463.5 L 385.5 450 Z " /><path fill="rgb(244,100,100)" stroke="rgb(244,100,100)" stroke-width="1" opacity="0.5019607843137255" d="M 477.5 450 L 478 452.5 L 477 452.5 L 477.5 450 Z " /><path fill="rgb(244,100,100)" stroke="rgb(244,100,100)" stroke-width="1" opacity="0.5019607843137255" d="M 409.5 451 L 410 453.5 L 409 453.5 L 409.5 451 Z " /><path fill="rgb(244,100,100)" stroke="rgb(244,100,100)" stroke-width="1" opacity="0.5019607843137255" d="M 588.5 451 L 589 452.5 L 586.5 457 L 586 455.5 L 588.5 451 Z " /><path fill="rgb(244,100,100)" stroke="rgb(244,100,100)" stroke-width="1" opacity="0.5019607843137255" d="M 664.5 451 L 665 454.5 L 664 454.5 L 664.5 451 Z " /><path fill="rgb(244,100,100)" stroke="rgb(244,100,100)" stroke-width="1" opacity="0.5019607843137255" d="M 254.5 452 L 255 454.5 L 254 454.5 L 254.5 452 Z " /><path fill="rgb(244,100,100)" stroke="rgb(244,100,100)" stroke-width="1" opacity="0.5019607843137255" d="M 311.5 452 L 312 456.5 L 311 456.5 L 311.5 452 Z " /><path fill="rgb(244,100,100)" stroke="rgb(244,100,100)" stroke-width="1" opacity="0.5019607843137255" d="M 380.5 452 L 381 465.5 L 380 465.5 L 380.5 452 Z " /><path fill="rgb(244,100,100)" stroke="rgb(244,100,100)" stroke-width="1" opacity="0.5019607843137255" d="M 174.5 453 L 175 471.5 L 174 471.5 L 174.5 453 Z " /><path fill="rgb(244,100,100)" stroke="rgb(244,100,100)" stroke-width="1" opacity="0.5019607843137255" d="M 352.5 453 L 353 464.5 L 352 464.5 L 352.5 453 Z " /><path fill="rgb(244,100,100)" stroke="rgb(244,100,100)" stroke-width="1" opacity="0.5019607843137255" d="M 482.5 453 L 483 465.5 L 482 465.5 L 482.5 453 Z " /><path fill="rgb(244,100,100)" stroke="rgb(244,100,100)" stroke-width="1" opacity="0.5019607843137255" d="M 559.5 453 L 560 454.5 L 558 455.5 L 559.5 453 Z " /><path fill="rgb(244,100,100)" stroke="rgb(244,100,100)" stroke-width="1" opacity="0.5019607843137255" d="M 190.5 454 L 191 463.5 L 190 463.5 L 190.5 454 Z " /><path fill="rgb(244,100,100)" stroke="rgb(244,100,100)" stroke-width="1" opacity="0.5019607843137255" d="M 217.5 454 L 218 463.5 L 217 463.5 L 217.5 454 Z " /><path fill="rgb(244,100,100)" stroke="rgb(244,100,100)" stroke-width="1" opacity="0.5019607843137255" d="M 282.5 454 L 283 463.5 L 282 463.5 L 282.5 454 Z " /><path fill="rgb(244,100,100)" stroke="rgb(244,100,100)" stroke-width="1" opacity="0.5019607843137255" d="M 450.5 454 L 451 463.5 L 450 463.5 L 450.5 454 Z " /><path fill="rgb(244,100,100)" stroke="rgb(244,100,100)" stroke-width="1" opacity="0.5019607843137255" d="M 478.5 454 L 479 463.5 L 478 463.5 L 478.5 454 Z " /><path fill="rgb(244,100,100)" stroke="rgb(244,100,100)" stroke-width="1" opacity="0.5019607843137255" d="M 509.5 454 L 510 456 L 514 456.5 L 510.5 457 L 509.5 454 Z " /><path fill="rgb(244,100,100)" stroke="rgb(244,100,100)" stroke-width="1" opacity="0.5019607843137255" d="M 149.5 455 L 150 469.5 L 149 469.5 L 149.5 455 Z " /><path fill="rgb(244,100,100)" stroke="rgb(244,100,100)" stroke-width="1" opacity="0.5019607843137255" d="M 287.5 456 L 288 473.5 L 287 473.5 L 287.5 456 Z " /><path fill="rgb(244,100,100)" stroke="rgb(244,100,100)" stroke-width="1" opacity="0.5019607843137255" d="M 408.5 456 L 409 460.5 L 408 460.5 L 408.5 456 Z " /><path fill="rgb(244,100,100)" stroke="rgb(244,100,100)" stroke-width="1" opacity="0.5019607843137255" d="M 523.5 456 L 528 456.5 L 523.5 457 L 523.5 456 Z " /><path fill="rgb(244,100,100)" stroke="rgb(244,100,100)" stroke-width="1" opacity="0.5019607843137255" d="M 572.5 456 L 572 457.5 Q 568.125 467.125 560.5 473 L 556.5 476 L 559.5 472 L 564 468.5 L 572.5 456 Z " /><path fill="rgb(244,100,100)" stroke="rgb(244,100,100)" stroke-width="1" opacity="0.5019607843137255" d="M 610.5 456 L 611 457.5 L 607.5 465 L 607 463.5 L 610.5 456 Z " /><path fill="rgb(244,100,100)" stroke="rgb(244,100,100)" stroke-width="1" opacity="0.5019607843137255" d="M 557.5 457 L 551.5 464 L 557.5 457 Z " /><path fill="rgb(244,100,100)" stroke="rgb(244,100,100)" stroke-width="1" opacity="0.5019607843137255" d="M 635.5 457 L 636 458.5 L 633.5 463 L 633 461.5 L 635.5 457 Z " /><path fill="rgb(244,100,100)" stroke="rgb(244,100,100)" stroke-width="1" opacity="0.5019607843137255" d="M 88.5 458 L 89 469.5 L 88 469.5 L 88.5 458 Z " /><path fill="rgb(244,100,100)" stroke="rgb(244,100,100)" stroke-width="1" opacity="0.5019607843137255" d="M 585.5 458 L 586 459.5 L 580.5 469 L 581 467.5 L 585.5 458 Z " /><path fill="rgb(244,100,100)" stroke="rgb(244,100,100)" stroke-width="1" opacity="0.5019607843137255" d="M 311.5 460 L 312 464.5 L 311 464.5 L 311.5 460 Z " /><path fill="rgb(244,100,100)" stroke="rgb(244,100,100)" stroke-width="1" opacity="0.5019607843137255" d="M 254.5 463 L 255 465.5 L 254 465.5 L 254.5 463 Z " /><path fill="rgb(244,100,100)" stroke="rgb(244,100,100)" stroke-width="1" opacity="0.5019607843137255" d="M 664.5 463 L 665 466.5 Q 657.283 485.283 642.5 497 L 634.5 501 L 634.5 500 Q 646.5 495.5 653 485.5 Q 660.629 476.129 664.5 463 Z " /><path fill="rgb(244,100,100)" stroke="rgb(244,100,100)" stroke-width="1" opacity="0.5019607843137255" d="M 409.5 464 L 410 466.5 L 409 466.5 L 409.5 464 Z " /><path fill="rgb(244,100,100)" stroke="rgb(244,100,100)" stroke-width="1" opacity="0.5019607843137255" d="M 549.5 464 L 548.5 466 L 545.5 467 L 545.5 466 L 549.5 464 Z " /><path fill="rgb(244,100,100)" stroke="rgb(244,100,100)" stroke-width="1" opacity="0.5019607843137255" d="M 632.5 464 L 633 465.5 L 631.5 468 L 631 466.5 L 632.5 464 Z " /><path fill="rgb(244,100,100)" stroke="rgb(244,100,100)" stroke-width="1" opacity="0.5019607843137255" d="M 218.5 465 Q 220.604 473.396 226.5 478 L 229 479.5 L 227.5 479 L 222 474.5 Q 216.538 471.129 218.5 465 Z " /><path fill="rgb(244,100,100)" stroke="rgb(244,100,100)" stroke-width="1" opacity="0.5019607843137255" d="M 281.5 465 L 282 468.5 L 281 468.5 L 281.5 465 Z " /><path fill="rgb(244,100,100)" stroke="rgb(244,100,100)" stroke-width="1" opacity="0.5019607843137255" d="M 449.5 465 L 450 467.5 L 448.5 470 L 448 468.5 L 449.5 465 Z " /><path fill="rgb(244,100,100)" stroke="rgb(244,100,100)" stroke-width="1" opacity="0.5019607843137255" d="M 191.5 466 L 192 468.5 L 191 468.5 L 191.5 466 Z " /><path fill="rgb(244,100,100)" stroke="rgb(244,100,100)" stroke-width="1" opacity="0.5019607843137255" d="M 312.5 466 Q 314.278 474.222 320.5 478 L 327 480.5 L 324.5 481 L 314 472.5 Q 311 470 312.5 466 Z " /><path fill="rgb(244,100,100)" stroke="rgb(244,100,100)" stroke-width="1" opacity="0.5019607843137255" d="M 477.5 466 L 478 468.5 L 477 468.5 L 477.5 466 Z " /><path fill="rgb(244,100,100)" stroke="rgb(244,100,100)" stroke-width="1" opacity="0.5019607843137255" d="M 606.5 466 L 607 467.5 L 605.5 471 L 605 468.5 L 606.5 466 Z " /><path fill="rgb(244,100,100)" stroke="rgb(244,100,100)" stroke-width="1" opacity="0.5019607843137255" d="M 253.5 467 L 254 468.5 L 252.5 471 L 252 469.5 L 253.5 467 Z " /><path fill="rgb(244,100,100)" stroke="rgb(244,100,100)" stroke-width="1" opacity="0.5019607843137255" d="M 483.5 467 L 484 469.5 L 483 469.5 L 483.5 467 Z " /><path fill="rgb(244,100,100)" stroke="rgb(244,100,100)" stroke-width="1" opacity="0.5019607843137255" d="M 510 467 L 513 467.5 L 511 468.5 L 516.5 477 L 526 481.5 L 523.5 482 L 513 474.5 L 510 467 Z " /><path fill="rgb(244,100,100)" stroke="rgb(244,100,100)" stroke-width="1" opacity="0.5019607843137255" d="M 542.5 467 L 544 467.5 L 539.5 469 L 539.5 468 L 542.5 467 Z " /><path fill="rgb(244,100,100)" stroke="rgb(244,100,100)" stroke-width="1" opacity="0.5019607843137255" d="M 410.5 468 L 414 473.5 L 411 471.5 L 410.5 468 Z " /><path fill="rgb(244,100,100)" stroke="rgb(244,100,100)" stroke-width="1" opacity="0.5019607843137255" d="M 514.5 468 L 517 468.5 L 514.5 469 L 514.5 468 Z " /><path fill="rgb(244,100,100)" stroke="rgb(244,100,100)" stroke-width="1" opacity="0.5019607843137255" d="M 350.5 469 L 351 470.5 L 349 471.5 L 350.5 469 Z " /><path fill="rgb(244,100,100)" stroke="rgb(244,100,100)" stroke-width="1" opacity="0.5019607843137255" d="M 518.5 469 L 523 469.5 L 518.5 470 L 518.5 469 Z " /><path fill="rgb(244,100,100)" stroke="rgb(244,100,100)" stroke-width="1" opacity="0.5019607843137255" d="M 532.5 469 L 537 469.5 L 532.5 470 L 532.5 469 Z " /><path fill="rgb(244,100,100)" stroke="rgb(244,100,100)" stroke-width="1" opacity="0.5019607843137255" d="M 630.5 469 L 631 470.5 L 628.5 477 L 628 474.5 L 630.5 469 Z " /><path fill="rgb(244,100,100)" stroke="rgb(244,100,100)" stroke-width="1" opacity="0.5019607843137255" d="M 579.5 470 L 579 471.5 L 577.5 474 L 578 472.5 L 579.5 470 Z " /><path fill="rgb(244,100,100)" stroke="rgb(244,100,100)" stroke-width="1" opacity="0.5019607843137255" d="M 447.5 471 L 447 472.5 L 441.5 479 Q 437 483.5 426.5 482 L 426.5 481 Q 441.479 482.479 446 473.5 L 447.5 471 Z " /><path fill="rgb(244,100,100)" stroke="rgb(244,100,100)" stroke-width="1" opacity="0.5019607843137255" d="M 251.5 472 L 250.5 474 L 251.5 472 Z " /><path fill="rgb(244,100,100)" stroke="rgb(244,100,100)" stroke-width="1" opacity="0.5019607843137255" d="M 384.5 472 L 385 527.5 L 384 527.5 L 384.5 472 Z " /><path fill="rgb(244,100,100)" stroke="rgb(244,100,100)" stroke-width="1" opacity="0.5019607843137255" d="M 604.5 472 L 605 474.5 L 604 474.5 L 604.5 472 Z " /><path fill="rgb(244,100,100)" stroke="rgb(244,100,100)" stroke-width="1" opacity="0.5019607843137255" d="M 150.5 473 L 151 477.5 L 150 477.5 L 150.5 473 Z " /><path fill="rgb(244,100,100)" stroke="rgb(244,100,100)" stroke-width="1" opacity="0.5019607843137255" d="M 193.5 473 L 194 474.5 Q 190.306 481.806 180.5 483 L 180.5 482 Q 189.528 481.028 193 474.5 L 193.5 473 Z " /><path fill="rgb(244,100,100)" stroke="rgb(244,100,100)" stroke-width="1" opacity="0.5019607843137255" d="M 279.5 473 L 280 474.5 L 268.5 490 L 254.5 498 L 254.5 497 Q 265.387 493.387 272 485.5 L 279.5 473 Z " /><path fill="rgb(244,100,100)" stroke="rgb(244,100,100)" stroke-width="1" opacity="0.5019607843137255" d="M 348.5 473 L 342.5 480 L 339.5 481 L 339.5 480 Q 346 478.5 348.5 473 Z " /><path fill="rgb(244,100,100)" stroke="rgb(244,100,100)" stroke-width="1" opacity="0.5019607843137255" d="M 475.5 473 L 476 474.5 Q 471.937 483.938 464.5 490 L 450.5 498 L 450.5 497 Q 461.387 493.387 468 485.5 L 475.5 473 Z " /><path fill="rgb(244,100,100)" stroke="rgb(244,100,100)" stroke-width="1" opacity="0.5019607843137255" d="M 89.5 474 L 90 481.5 L 89 481.5 L 89.5 474 Z " /><path fill="rgb(244,100,100)" stroke="rgb(244,100,100)" stroke-width="1" opacity="0.5019607843137255" d="M 175.5 474 L 176 476.5 L 175 476.5 L 175.5 474 Z " /><path fill="rgb(244,100,100)" stroke="rgb(244,100,100)" stroke-width="1" opacity="0.5019607843137255" d="M 377.5 474 L 378 475.5 L 375.5 479 L 376 477.5 L 377.5 474 Z " /><path fill="rgb(244,100,100)" stroke="rgb(244,100,100)" stroke-width="1" opacity="0.5019607843137255" d="M 485.5 474 Q 489.405 483.595 496.5 490 L 503 494.5 L 501.5 494 L 492 486.5 Q 486.458 481.292 485.5 474 Z " /><path fill="rgb(244,100,100)" stroke="rgb(244,100,100)" stroke-width="1" opacity="0.5019607843137255" d="M 249.5 475 L 246.5 479 L 244.5 480 L 245.5 478 L 249.5 475 Z " /><path fill="rgb(244,100,100)" stroke="rgb(244,100,100)" stroke-width="1" opacity="0.5019607843137255" d="M 414.5 475 L 425 480.5 L 422.5 481 Q 413.885 478.865 414.5 475 Z " /><path fill="rgb(244,100,100)" stroke="rgb(244,100,100)" stroke-width="1" opacity="0.5019607843137255" d="M 576.5 475 L 575 477.5 L 564.5 490 L 560.5 493 L 563.5 489 L 570 483.5 L 576.5 475 Z " /><path fill="rgb(244,100,100)" stroke="rgb(244,100,100)" stroke-width="1" opacity="0.5019607843137255" d="M 554.5 476 L 553.5 478 L 548.5 480 L 548.5 479 L 554.5 476 Z " /><path fill="rgb(244,100,100)" stroke="rgb(244,100,100)" stroke-width="1" opacity="0.5019607843137255" d="M 603.5 476 L 604 485.5 L 603 485.5 L 603.5 476 Z " /><path fill="rgb(244,100,100)" stroke="rgb(244,100,100)" stroke-width="1" opacity="0.5019607843137255" d="M 176.5 478 L 179 481.5 L 176 479.5 L 176.5 478 Z " /><path fill="rgb(244,100,100)" stroke="rgb(244,100,100)" stroke-width="1" opacity="0.5019607843137255" d="M 151.5 479 L 152 482.5 L 151 482.5 L 151.5 479 Z " /><path fill="rgb(244,100,100)" stroke="rgb(244,100,100)" stroke-width="1" opacity="0.5019607843137255" d="M 230.5 480 Q 233.667 482.333 240.5 481 L 242.5 480 L 242.5 481 Q 239.333 483.333 232.5 482 L 230.5 480 Z " /><path fill="rgb(244,100,100)" stroke="rgb(244,100,100)" stroke-width="1" opacity="0.5019607843137255" d="M 374.5 480 L 373 482.5 L 364.5 492 L 359.5 495 L 360.5 493 Q 368 490 372 483.5 L 374.5 480 Z " /><path fill="rgb(244,100,100)" stroke="rgb(244,100,100)" stroke-width="1" opacity="0.5019607843137255" d="M 115.5 481 L 116 482.5 L 114.5 485 L 114 483.5 L 115.5 481 Z " /><path fill="rgb(244,100,100)" stroke="rgb(244,100,100)" stroke-width="1" opacity="0.5019607843137255" d="M 328.5 481 L 338 481.5 L 328.5 482 L 328.5 481 Z " /><path fill="rgb(244,100,100)" stroke="rgb(244,100,100)" stroke-width="1" opacity="0.5019607843137255" d="M 540.5 481 L 544 481.5 L 540.5 482 L 540.5 481 Z " /><path fill="rgb(244,100,100)" stroke="rgb(244,100,100)" stroke-width="1" opacity="0.5019607843137255" d="M 628.5 481 L 629.5 483 L 628.5 481 Z " /><path fill="rgb(244,100,100)" stroke="rgb(244,100,100)" stroke-width="1" opacity="0.5019607843137255" d="M 528.5 482 L 539 482.5 L 528.5 483 L 528.5 482 Z " /><path fill="rgb(244,100,100)" stroke="rgb(244,100,100)" stroke-width="1" opacity="0.5019607843137255" d="M 152.5 484 L 154 487.5 L 153 487.5 L 152.5 484 Z " /><path fill="rgb(244,100,100)" stroke="rgb(244,100,100)" stroke-width="1" opacity="0.5019607843137255" d="M 90.5 485 L 91 490.5 L 90 490.5 L 90.5 485 Z " /><path fill="rgb(244,100,100)" stroke="rgb(244,100,100)" stroke-width="1" opacity="0.5019607843137255" d="M 286.5 485 L 287 514.5 L 286 514.5 L 286.5 485 Z " /><path fill="rgb(244,100,100)" stroke="rgb(244,100,100)" stroke-width="1" opacity="0.5019607843137255" d="M 113.5 486 L 114 487.5 L 112.5 490 L 112 488.5 L 113.5 486 Z " /><path fill="rgb(244,100,100)" stroke="rgb(244,100,100)" stroke-width="1" opacity="0.5019607843137255" d="M 201.5 486 Q 208.419 493.581 219 497.5 L 217.5 498 Q 207.724 494.276 201.5 487 L 195.5 494 L 184.5 500 L 184.5 499 Q 194.444 495.944 200 488.5 L 201.5 486 Z " /><path fill="rgb(244,100,100)" stroke="rgb(244,100,100)" stroke-width="1" opacity="0.5019607843137255" d="M 604.5 487 Q 606.125 494.375 611.5 498 L 617 500.5 L 615.5 501 L 607 494.5 Q 602.771 491.896 604.5 487 Z " /><path fill="rgb(244,100,100)" stroke="rgb(244,100,100)" stroke-width="1" opacity="0.5019607843137255" d="M 154.5 489 L 162 497.5 L 159.5 496 L 157 494.5 L 154.5 489 Z " /><path fill="rgb(244,100,100)" stroke="rgb(244,100,100)" stroke-width="1" opacity="0.5019607843137255" d="M 111.5 491 L 112 492.5 L 110.5 495 L 110 493.5 L 111.5 491 Z " /><path fill="rgb(244,100,100)" stroke="rgb(244,100,100)" stroke-width="1" opacity="0.5019607843137255" d="M 91.5 493 L 92 496.5 L 91 496.5 L 91.5 493 Z " /><path fill="rgb(244,100,100)" stroke="rgb(244,100,100)" stroke-width="1" opacity="0.5019607843137255" d="M 558.5 493 L 557.5 495 L 558.5 493 Z " /><path fill="rgb(244,100,100)" stroke="rgb(244,100,100)" stroke-width="1" opacity="0.5019607843137255" d="M 313.5 495 L 318 497.5 L 316.5 498 L 313.5 495 Z " /><path fill="rgb(244,100,100)" stroke="rgb(244,100,100)" stroke-width="1" opacity="0.5019607843137255" d="M 357.5 495 L 356.5 497 L 355 496.5 L 357.5 495 Z " /><path fill="rgb(244,100,100)" stroke="rgb(244,100,100)" stroke-width="1" opacity="0.5019607843137255" d="M 555.5 495 L 554.5 497 L 546.5 500 L 546.5 499 L 555.5 495 Z " /><path fill="rgb(244,100,100)" stroke="rgb(244,100,100)" stroke-width="1" opacity="0.5019607843137255" d="M 109.5 496 L 110 497.5 L 109 500 L 103.5 501 L 103.5 500 Q 108.25 500.75 109 497.5 L 109.5 496 Z " /><path fill="rgb(244,100,100)" stroke="rgb(244,100,100)" stroke-width="1" opacity="0.5019607843137255" d="M 410.5 496 L 411 500.5 L 410 500.5 L 410.5 496 Z " /><path fill="rgb(244,100,100)" stroke="rgb(244,100,100)" stroke-width="1" opacity="0.5019607843137255" d="M 352.5 497 L 354 497.5 Q 349.173 501.673 339.5 501 L 339.5 500 Q 348.182 500.682 352.5 497 Z " /><path fill="rgb(244,100,100)" stroke="rgb(244,100,100)" stroke-width="1" opacity="0.5019607843137255" d="M 414.5 497 L 422 499.5 L 419.5 500 Q 413.786 499.464 414.5 497 Z " /><path fill="rgb(244,100,100)" stroke="rgb(244,100,100)" stroke-width="1" opacity="0.5019607843137255" d="M 508.5 497 L 516 499.5 L 513.5 500 Q 507.786 499.464 508.5 497 Z " /><path fill="rgb(244,100,100)" stroke="rgb(244,100,100)" stroke-width="1" opacity="0.5019607843137255" d="M 92.5 498 L 93.5 500 L 92.5 498 Z " /><path fill="rgb(244,100,100)" stroke="rgb(244,100,100)" stroke-width="1" opacity="0.5019607843137255" d="M 223.5 499 L 226 499.5 L 223.5 500 L 223.5 499 Z " /><path fill="rgb(244,100,100)" stroke="rgb(244,100,100)" stroke-width="1" opacity="0.5019607843137255" d="M 247.5 499 L 250 499.5 L 247.5 500 L 247.5 499 Z " /><path fill="rgb(244,100,100)" stroke="rgb(244,100,100)" stroke-width="1" opacity="0.5019607843137255" d="M 313.5 499 L 314 514.5 L 313 514.5 L 313.5 499 Z " /><path fill="rgb(244,100,100)" stroke="rgb(244,100,100)" stroke-width="1" opacity="0.5019607843137255" d="M 322.5 499 L 325 499.5 L 322.5 500 L 322.5 499 Z " /><path fill="rgb(244,100,100)" stroke="rgb(244,100,100)" stroke-width="1" opacity="0.5019607843137255" d="M 443.5 499 L 446 499.5 L 443.5 500 L 443.5 499 Z " /><path fill="rgb(244,100,100)" stroke="rgb(244,100,100)" stroke-width="1" opacity="0.5019607843137255" d="M 95.5 500 L 98 500.5 L 95.5 501 L 95.5 500 Z " /><path fill="rgb(244,100,100)" stroke="rgb(244,100,100)" stroke-width="1" opacity="0.5019607843137255" d="M 168.5 500 L 172 500.5 L 168.5 501 L 168.5 500 Z " /><path fill="rgb(244,100,100)" stroke="rgb(244,100,100)" stroke-width="1" opacity="0.5019607843137255" d="M 179.5 500 L 183 500.5 L 179.5 501 L 179.5 500 Z " /><path fill="rgb(244,100,100)" stroke="rgb(244,100,100)" stroke-width="1" opacity="0.5019607843137255" d="M 227.5 500 L 232 500.5 L 227.5 501 L 227.5 500 Z " /><path fill="rgb(244,100,100)" stroke="rgb(244,100,100)" stroke-width="1" opacity="0.5019607843137255" d="M 241.5 500 L 246 500.5 L 241.5 501 L 241.5 500 Z " /><path fill="rgb(244,100,100)" stroke="rgb(244,100,100)" stroke-width="1" opacity="0.5019607843137255" d="M 326.5 500 L 331 500.5 L 326.5 501 L 326.5 500 Z " /><path fill="rgb(244,100,100)" stroke="rgb(244,100,100)" stroke-width="1" opacity="0.5019607843137255" d="M 423.5 500 L 429 500.5 L 423.5 501 L 423.5 500 Z " /><path fill="rgb(244,100,100)" stroke="rgb(244,100,100)" stroke-width="1" opacity="0.5019607843137255" d="M 437.5 500 L 442 500.5 L 437.5 501 L 437.5 500 Z " /><path fill="rgb(244,100,100)" stroke="rgb(244,100,100)" stroke-width="1" opacity="0.5019607843137255" d="M 517.5 500 L 521 500.5 L 517.5 501 L 517.5 500 Z " /><path fill="rgb(244,100,100)" stroke="rgb(244,100,100)" stroke-width="1" opacity="0.5019607843137255" d="M 542.5 500 L 545 500.5 L 542.5 501 L 542.5 500 Z " /><path fill="rgb(244,100,100)" stroke="rgb(244,100,100)" stroke-width="1" opacity="0.5019607843137255" d="M 522.5 501 L 540 501.5 L 522.5 502 L 522.5 501 Z " /><path fill="rgb(244,100,100)" stroke="rgb(244,100,100)" stroke-width="1" opacity="0.5019607843137255" d="M 618.5 501 L 621 501.5 L 618.5 502 L 618.5 501 Z " /><path fill="rgb(244,100,100)" stroke="rgb(244,100,100)" stroke-width="1" opacity="0.5019607843137255" d="M 630.5 501 L 633 501.5 L 630.5 502 L 630.5 501 Z " /><path fill="rgb(244,100,100)" stroke="rgb(244,100,100)" stroke-width="1" opacity="0.5019607843137255" d="M 624.5 502 L 627 502.5 L 624.5 503 L 624.5 502 Z " /><path fill="rgb(244,100,100)" stroke="rgb(244,100,100)" stroke-width="1" opacity="0.5019607843137255" d="M 411.5 507 L 412 520.5 L 411 520.5 L 411.5 507 Z " /><path fill="rgb(244,100,100)" stroke="rgb(244,100,100)" stroke-width="1" opacity="0.5019607843137255" d="M 314.5 520 L 315 536.5 L 314 536.5 L 314.5 520 Z " /><path fill="rgb(244,100,100)" stroke="rgb(244,100,100)" stroke-width="1" opacity="0.5019607843137255" d="M 287.5 525 L 288 543.5 L 287 543.5 L 287.5 525 Z " /><path fill="rgb(244,100,100)" stroke="rgb(244,100,100)" stroke-width="1" opacity="0.5019607843137255" d="M 412.5 527 L 413 575.5 L 412 575.5 L 412.5 527 Z " /><path fill="rgb(244,100,100)" stroke="rgb(244,100,100)" stroke-width="1" opacity="0.5019607843137255" d="M 385.5 536 L 386 550.5 L 385 550.5 L 385.5 536 Z " /><path fill="rgb(244,100,100)" stroke="rgb(244,100,100)" stroke-width="1" opacity="0.5019607843137255" d="M 288.5 549 L 289 559.5 L 288 559.5 L 288.5 549 Z " /><path fill="rgb(244,100,100)" stroke="rgb(244,100,100)" stroke-width="1" opacity="0.5019607843137255" d="M 386.5 555 L 387 563.5 L 386 563.5 L 386.5 555 Z " /><path fill="rgb(244,100,100)" stroke="rgb(244,100,100)" stroke-width="1" opacity="0.5019607843137255" d="M 289.5 563 L 290 569.5 L 289 569.5 L 289.5 563 Z " /><path fill="rgb(244,100,100)" stroke="rgb(244,100,100)" stroke-width="1" opacity="0.5019607843137255" d="M 387.5 567 L 388 572.5 L 387 572.5 L 387.5 567 Z " /><path fill="rgb(244,100,100)" stroke="rgb(244,100,100)" stroke-width="1" opacity="0.5019607843137255" d="M 314.5 568 L 315 578.5 L 310.5 582 L 311.5 580 L 314 578.5 L 314.5 568 Z " /><path fill="rgb(244,100,100)" stroke="rgb(244,100,100)" stroke-width="1" opacity="0.5019607843137255" d="M 290.5 572 L 291 575.5 L 290 575.5 L 290.5 572 Z " /><path fill="rgb(244,100,100)" stroke="rgb(244,100,100)" stroke-width="1" opacity="0.5019607843137255" d="M 388.5 574 L 389 578 L 400 582.5 L 397.5 583 L 388 577.5 L 388.5 574 Z " /><path fill="rgb(244,100,100)" stroke="rgb(244,100,100)" stroke-width="1" opacity="0.5019607843137255" d="M 291.5 577 L 296 580.5 L 294.5 580 L 291.5 577 Z " /><path fill="rgb(244,100,100)" stroke="rgb(244,100,100)" stroke-width="1" opacity="0.5019607843137255" d="M 411.5 578 L 412 580 L 405.5 583 L 405.5 582 L 411.5 578 Z " /><path fill="rgb(244,100,100)" stroke="rgb(244,100,100)" stroke-width="1" opacity="0.5019607843137255" d="M 297.5 581 L 302 582.5 L 299.5 583 L 297.5 581 Z " /><path fill="rgb(244,100,100)" stroke="rgb(244,100,100)" stroke-width="1" opacity="0.5019607843137255" d="M 303.5 583 L 306 583.5 L 303.5 584 L 303.5 583 Z " /><path fill="rgb(248,102,101)" stroke="rgb(248,102,101)" stroke-width="1" opacity="0.996078431372549" d="M 465.5 65 Q 482.389 66.611 489 78.5 Q 506.743 105.257 504 152.5 L 503 153.5 L 503 168.5 L 502 169.5 L 504.5 173 L 528 193.5 Q 537.296 202.704 543 215.5 L 544 230.5 Q 541.5 238.5 535.5 243 Q 520.351 253.851 499 258.5 L 503 266.5 Q 518.402 281.098 530 299.5 Q 538.516 309.984 538 329.5 L 533.5 337 Q 530.333 339.333 523.5 338 Q 510.603 332.897 503 322.5 Q 485.218 295.782 462.5 274 Q 432.646 244.854 390.5 228 Q 362.137 214.863 317.5 218 Q 286.841 221.841 263.5 233 Q 230.543 248.543 205.5 272 L 199.5 273 Q 193.375 269.125 196 256.5 Q 210.158 216.158 240.5 192 L 262 174.5 Q 262.75 172.25 260.5 173 Q 244.075 172.925 237 163.5 Q 230.167 157.333 232 142.5 Q 235.13 130.63 243.5 124 Q 255.589 111.089 279.5 110 L 282 111 Q 287.2 121.033 286 138 Q 310.671 123.365 353.5 126 Q 380.747 130.253 400.5 142 Q 428.554 157.446 449.5 180 L 456.5 182 L 461 178.5 Q 447.318 153.682 430 132.5 L 424 120.5 Q 416.222 106.778 418 83.5 Q 419.25 76.75 423.5 73 L 428.5 72 Q 437.523 75.977 443 83.5 Q 452.18 94.82 457 110.5 L 477 169 L 485 167 Q 477.799 131.94 465 100.5 Q 461.348 87.652 462 70.5 L 465.5 65 Z " /><path fill="rgb(248,102,101)" stroke="rgb(248,102,101)" stroke-width="1" opacity="0.996078431372549" d="M 99.5 335 Q 109.932 333.568 113 339.5 Q 117.389 370.111 114 408.5 L 113 409.5 Q 113.774 437.774 111 462.5 L 112 462.5 Q 120.828 439.328 137.5 424 Q 143.667 415.667 159.5 417 L 168 422.5 Q 177.473 440.527 174 471.5 Q 174 479 178.5 482 L 183.5 483 L 194 474.5 Q 189.375 466.625 191 452.5 Q 194.87 435.87 206.5 427 Q 218.5 416 242.5 417 Q 262.603 420.397 273 433.5 Q 283.28 443.22 282 464.5 Q 278.75 480.25 268.5 489 Q 256.5 501 232.5 501 Q 212.112 498.387 201.5 486 L 195.5 493 Q 188.419 501.419 172.5 501 Q 160.75 499.75 156 491.5 Q 147.361 474.639 149 447.5 L 145.5 443 L 142.5 442 Q 134.125 444.125 131 451.5 Q 115.792 472.792 106.5 500 L 98.5 501 Q 93.75 500.75 92 497.5 Q 84.934 445.566 87 384.5 Q 86.149 357.857 91 339 L 99.5 335 Z M 232 436 L 228 438 Q 219 443 217 455 Q 216 468 222 475 Q 226 480 233 482 Q 242 483 247 479 Q 255 473 256 460 Q 255 450 251 444 Q 246 435 232 436 Z " /><path fill="rgb(248,102,101)" stroke="rgb(248,102,101)" stroke-width="1" opacity="0.996078431372549" d="M 580.5 403 Q 588.75 402.75 592 407.5 Q 596.424 413.28 596 423 Q 608.347 427.417 627.5 426 Q 635.295 427.205 639 432.5 Q 641.667 436.333 640 444.5 Q 631.353 459.853 627 479.5 L 629.5 483 Q 638.747 482.747 642 476.5 Q 652.799 463.799 660.5 448 Q 663.833 446.875 663 449.5 Q 665.875 454.125 665 462.5 Q 658.15 483.65 642.5 496 Q 635.783 502.783 621.5 502 Q 612.5 500.5 608 494.5 Q 602.167 488.833 604 475.5 L 614 448.5 L 611.5 446 Q 598.779 446.618 591 443 Q 583.348 471.118 564.5 489 Q 551.983 503.983 521.5 501 Q 503.007 497.993 493 486.5 Q 481.238 476.262 483 452.5 Q 487.021 435.521 499.5 427 Q 511.071 416.071 535.5 418 Q 547.794 420.409 555 427 Q 562.667 432.694 561 448.5 Q 558.705 459.205 550.5 464 Q 540.822 470.822 523.5 470 L 510 467 Q 511.205 474.136 516.5 478 Q 523.435 484.565 538.5 483 Q 556.69 479.69 566 467.5 Q 576.168 455.168 581 437.5 Q 570.731 431.269 572 413.5 Q 573.536 407.036 578.5 404 L 580.5 403 Z M 524 436 L 517 440 Q 510 445 509 456 Q 511 459 519 458 Q 529 458 536 454 L 541 447 L 540 442 Q 537 434 524 436 Z " /><path fill="rgb(248,102,101)" stroke="rgb(248,102,101)" stroke-width="1" opacity="0.996078431372549" d="M 297.5 416 Q 304.125 415.5 307 418 L 308 425 Q 318.405 416.09 339.5 417 Q 359.585 419.915 370 432.5 Q 382.759 442.241 380 467.5 Q 375.822 482.822 364.5 491 Q 352.904 500.904 331.5 501 Q 320.5 500 313.5 495 L 313 514.5 Q 316.2 538.8 315 567.5 Q 316.875 576.875 312.5 580 Q 309.667 583.667 302.5 583 Q 294.95 581.55 291 576.5 Q 285.214 529.286 287 474.5 L 288 473.5 Q 287.214 447.714 290 425.5 Q 289.607 419.107 293.5 417 L 297.5 416 Z M 328 436 L 318 441 L 311 453 Q 309 466 314 473 Q 319 480 329 482 Q 338 483 343 480 Q 350 475 353 465 Q 355 449 348 443 Q 343 434 328 436 Z " /><path fill="rgb(248,102,101)" stroke="rgb(248,102,101)" stroke-width="1" opacity="0.996078431372549" d="M 395.5 416 Q 402.688 415.313 405 419.5 Q 403.75 425.583 406.5 425 Q 416.89 415.89 437.5 417 Q 459.358 420.642 470 435.5 Q 479.216 445.284 478 465.5 Q 474.387 480.387 464.5 489 Q 452.747 500.747 429.5 501 L 410 496 Q 414 533 412 577.5 Q 409.846 583.846 400.5 583 L 389 578 Q 381.979 526.899 385 464.5 L 386 463.5 Q 385.28 441.28 388 422.5 L 391.5 417 L 395.5 416 Z M 426 436 L 418 439 Q 409 444 408 457 Q 408 470 414 476 L 427 482 Q 437 484 442 479 Q 449 474 451 464 Q 452 451 447 445 Q 443 434 426 436 Z " /></svg>
