<svg xmlns="http://www.w3.org/2000/svg"
     viewBox="0 0 2000 800"
     role="img"
     aria-label="Kraft logo">

  <!-- Inner shape -->
  <path fill="currentColor" d="
    M 304 407 L 307 431 L 318 458 L 385 554 L 406 579 L 422 595
    L 439 608 L 459 618 L 486 626 L 518 632 L 598 642 L 675 649
    L 847 659 L 988 662 L 1150 659 L 1322 649 L 1458 635
    L 1502 628 L 1533 620 L 1555 610 L 1572 598 L 1594 576
    L 1610 557 L 1680 457 L 1690 432 L 1693 416 L 1693 401
    L 1688 378 L 1679 358 L 1614 265 L 1586 232 L 1571 218
    L 1552 205 L 1539 199 L 1524 194 L 1487 186 L 1411 176
    L 1339 169 L 1181 159 L 1031 155 L 967 155 L 841 158
    L 699 166 L 616 173 L 545 181 L 499 188 L 461 198
    L 442 207 L 424 220 L 404 240 L 387 260 L 320 355
    L 309 379 L 306 390 Z"/>

  <!-- Outer border -->
  <path fill="currentColor" d="
    M 22 394 L 22 423 L 27 450 L 33 467 L 53 502 L 151 640
    L 166 658 L 202 694 L 215 704 L 241 719 L 276 732
    L 319 742 L 420 758 L 516 770 L 589 777 L 704 785
    L 900 791 L 1157 790 L 1273 786 L 1404 777 L 1513 766
    L 1596 754 L 1654 741 L 1696 726 L 1729 707 L 1753 685
    L 1794 640 L 1878 514 L 1892 486 L 1899 458 L 1903 422
    L 1901 392 L 1894 362 L 1882 334 L 1804 213 L 1767 165
    L 1745 140 L 1719 118 L 1684 98 L 1639 82 L 1580 68
    L 1484 52 L 1368 38 L 1222 27 L 1000 22 L 778 27
    L 632 38 L 516 52 L 420 68 L 361 82 L 316 98
    L 281 118 L 255 140 L 233 165 L 196 213 L 118 334
    L 106 362 L 99 392 Z"/>

  <!-- KRAFT wordmark -->
  <path fill="currentColor" d="
    M 433 276 L 516 277 L 513 287 L 513 375 L 577 292
    L 586 276 L 667 277 L 656 289 L 583 388 L 649 511
    L 662 529 L 661 530 L 570 530 L 568 528 L 565 516
    L 513 424 L 513 520 L 516 529 L 432 529 L 435 519
    L 435 288 Z

    M 685 277 L 832 277 L 852 281 L 863 285 L 875 292
    L 885 301 L 895 318 L 899 335 L 899 355 L 894 376
    L 887 389 L 872 404 L 859 411 L 845 415 L 910 523
    L 983 286 L 983 277 L 1090 276 L 1093 294 L 1156 513
    L 1164 529 L 1076 530 L 1076 521 L 1066 480 L 999 480
    L 990 516 L 989 530 L 821 530 L 814 512 L 766 435
    L 766 520 L 769 529 L 686 530 L 685 528 L 688 519
    L 688 288 Z

    M 1178 277 L 1354 277 L 1354 346 L 1344 343 L 1260 343
    L 1260 387 L 1353 388 L 1353 443 L 1350 444 L 1342 441
    L 1260 441 L 1260 522 L 1262 529 L 1179 530 L 1178 529
    L 1181 521 L 1181 285 Z

    M 1374 277 L 1585 278 L 1584 346 L 1574 343 L 1519 343
    L 1519 520 L 1522 529 L 1521 530 L 1438 529 L 1441 522
    L 1441 343 L 1384 343 L 1374 346 Z"/>
</svg>
