<svg xmlns="http://www.w3.org/2000/svg" viewBox="0 0 1190.55 841.89" role="img" aria-label="Movember">
  <path fill="#3C4758" d="M1028.99,506.05v-33.12h8.51c3.69,0,5.43,1.85,5.43,5.64v21.84c0,3.79-1.74,5.64-5.43,5.64
    C1037.5,506.05,1028.99,506.05,1028.99,506.05z M996.59,446.27v141.08h32.4v-56.18h8l10.25,56.18H1078c0-1.23-0.72-2.05-0.82-2.56
    c0-0.51,0-1.33-0.72-2.46l-1.44-5.13c-0.62-2.05-1.54-5.43-2.67-10.25l-4.51-17.74c-1.95-7.28-4.41-16.71-7.18-28.09
    c3.9-1.73,7.16-4.63,9.33-8.3c1.95-3.07,3.05-6.61,3.18-10.25V471.8c0.15-7.78-3.58-15.12-9.95-19.58
    c-3.08-2.26-6.56-3.79-10.25-4.72c-3.63-0.83-7.35-1.24-11.07-1.23C1041.91,446.27,996.59,446.27,996.59,446.27z
    M817.38,339.34v-1.03c-3.49-21.02,0,0-10.97-60.8c-1.42-8.38-3.34-16.66-5.74-24.81c-0.22-0.12-0.47-0.19-0.72-0.21
    c-0.98,0-1.79,0.76-1.85,1.74v0.51c0,3.08-2.97,34.35-3.08,35.88c-0.37,5.46-1.73,10.81-4,15.79
    c-1.85,1.74-4.92,4.31-8.71,7.48l-4.41,3.69c-1.43,1.31-3.29,2.04-5.23,2.05c-1.85-0.03-3.66-0.56-5.23-1.54l-17.63-12.71
    l-13.74-10.25c-21.63-16.4-42.75-34.35-66.23-41.63c-10.04-2.94-20.72-2.94-30.76,0c-4.31,1.13-8.41,2.77-12.3,5.02
    c-10.25,5.43-16.61,14.35-24.5,18.76h-1.23c-7.89-4.31-14.15-13.33-24.5-18.76c-3.88-2.2-8.01-3.92-12.3-5.13
    c-10.04-2.94-20.72-2.94-30.76,0c-23.58,7.38-44.6,25.43-65.82,41.73l-13.64,10.25h-0.51l-18.04,12.71
    c-1.57,0.98-3.38,1.51-5.23,1.54c-1.93-0.05-3.78-0.77-5.23-2.05l-4.31-3.69c-3.9-3.18-6.87-5.74-8.71-7.48
    c-2.26-5.02-3.59-10.36-4-15.79c0-1.54-2.87-32.81-3.18-35.88v-0.51c-0.1-0.96-0.88-1.7-1.85-1.74
    c-0.53,0.02-1.02,0.29-1.33,0.72v0.92c-2.15,7.59-3.9,15.38-5.13,23.38c-11.38,60.9-7.69,39.78-11.38,60.9v0.92
    c-0.08,1.26,0.67,2.42,1.85,2.87c18.45,8.1,36.91,16.1,55.57,23.99l4.41,1.95c2.05,0.51,4.1,0.51,6.05,0
    c5.84-1.03,11.59-2.67,17.53-3.69c14.76-4.1,29.73-6.46,45.01-7.38c11.79,0,23.58,0,35.37-0.72c1.54-0.1,3.08-0.41,4.61-0.82
    l43.68-18.86c0.51-0.1,1.03-0.1,1.44,0h1.54l43.57,18.86c1.54,0.41,3.08,0.72,4.61,0.82c10.25,0,20.51,0.82,30.76,0.82h7.48
    c13.84,1.23,27.58,3.79,41.01,7.38c5.95,1.03,11.69,2.67,17.63,3.69h3.49c1.23,0.21,2.56,0.21,3.79,0
    c20.51-8.51,41.01-17.12,61.52-25.94c1.06-0.63,1.6-1.87,1.33-3.08L817.38,339.34z
    M498.63,587.35h65.21v-26.86h-32.09v-32.19h21.33v-26.86h-21.33v-30.45h32.09v-24.91h-65.21C498.63,446.07,498.63,587.35,498.63,587.35z
    M890.89,587.35h65.21v-26.86h-32.09v-32.19h21.22v-26.86h-21.22v-30.45h32.09v-24.91h-65.21C890.89,446.07,890.89,587.35,890.89,587.35z
    M835.83,452.22c-3.1-2.19-6.57-3.79-10.25-4.72c-3.8-0.87-7.69-1.28-11.59-1.23h-45.11v141.08H814c3.9,0,7.79-0.51,11.59-1.54
    c3.68-0.93,7.16-2.53,10.25-4.72c3.08-2.05,5.43-4.82,7.18-8c1.95-3.59,2.87-7.59,2.77-11.59v-29.73c0-3.28-1.03-6.56-3.18-9.23
    c-2.45-3.23-5.75-5.71-9.53-7.18c3.69-1.44,7.07-3.9,9.53-7.18c2.05-2.56,3.18-5.84,3.08-9.23V471.7c0.21-4.1-0.72-8-2.56-11.59
    c-1.85-3.18-4.31-5.95-7.28-8V452.22z
    M815.33,554.75c0.36,2.81-1.63,5.37-4.44,5.73c-0.4,0.05-0.8,0.05-1.2,0.01h-8.2v-31.07h7.69c1.44-0.1,2.97,0.31,4.1,1.23
    c1.1,1.07,1.66,2.57,1.54,4.1C814.82,534.75,815.33,554.75,815.33,554.75z
    M815.33,497.54c0.37,2.69-1.51,5.18-4.2,5.55c-0.48,0.07-0.96,0.06-1.44-0.01h-8.2v-30.76h7.69c2.68-0.43,5.21,1.4,5.64,4.08
    c0.08,0.52,0.08,1.04,0,1.56l0.51,19.48L815.33,497.54z
    M665.44,510.56l-13.94-64.59h-45.93v141.38h29.12v-90.22l17.53,90.22h20.51l20.51-89.92v89.92h32.4V446.07h-46.65L665.44,510.56z
    M171.88,510.56l-13.94-64.59H112v141.38h29.12v-90.22l17.53,90.22h20.4l20.51-89.92v89.92h32.5V446.07h-46.65
    C185.41,446.07,171.88,510.56,171.88,510.56z
    M335.81,453.76c-12.55-10.54-29.83-13.41-45.11-7.48c-4.7,1.74-9.07,4.27-12.92,7.48c-3.49,2.77-6.46,6.25-8.61,10.25
    c-1.95,3.28-3.08,6.97-3.08,10.77v84.17c0.1,3.9,1.13,7.59,3.08,10.87c2.26,4,5.13,7.48,8.61,10.25c3.9,3.18,8.2,5.64,12.92,7.48
    c5.13,1.74,10.66,2.46,16.1,2.26c10.55-0.08,20.76-3.69,29.01-10.25c3.49-2.87,6.46-6.36,8.61-10.25
    c1.95-3.08,3.08-6.66,3.38-10.25v-84.07c0-3.9-1.03-7.59-3.08-10.97C342.51,460.01,339.47,456.52,335.81,453.76z
    M313.67,556.28c0.13,1.7-0.61,3.36-1.95,4.41c-1.35,1.12-3.07,1.7-4.82,1.64c-1.76,0.09-3.48-0.5-4.82-1.64
    c-1.38-1.03-2.15-2.69-2.05-4.41v-79.25c-0.08-1.72,0.68-3.37,2.05-4.41c1.44-1.03,3.08-1.64,4.82-1.64
    c1.74,0,3.49,0.51,4.82,1.64c1.34,1.06,2.1,2.7,2.05,4.41v79.25H313.67z
    M421.01,525.01l-8.61-78.95h-35.27l27.58,141.28h31.17l27.58-141.28h-32.6l-9.95,78.95H421.01z"/>
</svg>
