<svg width="1280" height="729" version="1.1" xmlns="http://www.w3.org/2000/svg" desc="Created with imagetracer.js version 1.2.6" ><path fill="rgb(30,87,162)" stroke="rgb(30,87,162)" stroke-width="1" opacity="0.9725490196078431" d="M 584.5 7 Q 661.882 3.618 728.5 11 L 767.5 18 Q 778.464 22.536 785 31.5 L 801.5 55 Q 1012.342 84.658 1148 189.5 Q 1148.833 192.125 1145.5 191 Q 998.246 117.254 799.5 95 Q 789.955 112.455 775.5 125 L 761.5 131 Q 745.917 136.417 724.5 136 L 723.5 137 L 715.5 137 L 714.5 138 Q 662.71 142.21 605.5 141 Q 551.517 140.483 505.5 132 Q 487.875 129.625 479 118.5 L 462.5 95 Q 263.182 117.948 115 191 Q 114.25 186.333 118.5 185 Q 254.72 84.461 461 55 Q 470.645 35.783 486.5 22 Q 528.383 7.383 584.5 7 Z " /><path fill="rgb(30,87,162)" stroke="rgb(30,87,162)" stroke-width="1" opacity="0.9725490196078431" d="M 7 249 Q 68.235 243.229 97 270 Q 121.46 292.845 119 343.5 Q 113.892 389.392 86.5 413 Q 72.086 426.586 52 434.5 L 52 502 L 7 502 L 7 249 Z M 52 288 L 52 393 L 57 391 Q 76 374 78 341 Q 79 309 66 294 Q 61 288 52 288 Z " /><path fill="rgb(30,87,162)" stroke="rgb(30,87,162)" stroke-width="1" opacity="0.9725490196078431" d="M 1190.5 249 L 1230.5 249 L 1232 250.5 L 1272 494.5 L 1273 495.5 L 1273 502 L 1231.5 502 L 1230 500.5 L 1230 494.5 L 1229 493.5 L 1224 458 L 1195.5 458 Q 1194.25 458.25 1195 464.5 L 1194 465.5 L 1190 499.5 L 1189 502 L 1149.5 502 L 1148 500.5 L 1183 287.5 L 1184 286.5 L 1184 280.5 L 1185 279.5 L 1189 250.5 L 1190.5 249 Z M 1210 340 Q 1205 358 1205 382 L 1204 383 L 1204 391 L 1203 392 L 1203 400 L 1202 401 L 1202 410 L 1200 419 Q 1199 423 1201 423 L 1220 423 L 1219 421 Q 1216 378 1210 340 Z " /><path fill="rgb(30,87,162)" stroke="rgb(30,87,162)" stroke-width="1" opacity="0.9725490196078431" d="M 129 269 L 170 269 L 170 365.5 L 170.5 366 L 195 366 L 195 269 L 236 269 L 236 498.5 L 235.5 499 L 195 499 L 195 399.5 L 194.5 399 L 170 399 L 170 499 L 129 499 L 129 269 Z " /><path fill="rgb(30,87,162)" stroke="rgb(30,87,162)" stroke-width="1" opacity="0.9725490196078431" d="M 264.5 269 L 303.5 269 L 305 270.5 L 305 498.5 L 304.5 499 L 263 499 L 263 270.5 L 264.5 269 Z " /><path fill="rgb(30,87,162)" stroke="rgb(30,87,162)" stroke-width="1" opacity="0.9725490196078431" d="M 332 269 L 373 269 L 373 465.5 L 373.5 466 L 404.5 466 L 406 468.5 Q 401.889 481.389 401 497.5 L 399.5 499 L 332.5 499 L 332 498.5 L 332 269 Z " /><path fill="rgb(30,87,162)" stroke="rgb(30,87,162)" stroke-width="1" opacity="0.9725490196078431" d="M 448 269 L 486.5 269 L 487 272.5 L 488 273.5 L 488 279.5 L 489 280.5 Q 504.464 388.536 524 492.5 L 524 499 L 485.5 499 Q 484.375 498.875 485 493.5 L 484 492.5 L 480 460 L 453.5 460 Q 452.25 460.25 453 466.5 L 452 467.5 Q 452.4 485.95 448 499 L 410 498.5 L 415 473.5 L 415 467.5 L 416 466.5 L 448 269 Z M 467 352 L 462 393 L 461 394 L 461 402 L 460 403 L 460 411 L 459 412 L 459 420 L 458 421 L 458 427 L 475 427 L 475 419 L 474 418 Q 472 383 467 352 Z " /><path fill="rgb(30,87,162)" stroke="rgb(30,87,162)" stroke-width="1" opacity="0.9725490196078431" d="M 538 269 Q 595.553 262.238 619 290.5 Q 647.67 329.83 642 403.5 Q 640.307 458.807 610.5 486 Q 586.108 504.816 538 499 L 538 269 Z M 579 306 L 580 464 L 582 463 Q 603 441 602 397 Q 606 344 588 313 Q 585 307 579 306 Z " /><path fill="rgb(30,87,162)" stroke="rgb(30,87,162)" stroke-width="1" opacity="0.9725490196078431" d="M 659 269 L 746 269 L 746 302 L 700 302 L 700 366 L 745 366 L 745 397.5 L 743.5 399 L 700 399 L 700 466 L 746 466 L 746 499 L 659 499 L 659 269 Z " /><path fill="rgb(30,87,162)" stroke="rgb(30,87,162)" stroke-width="1" opacity="0.9725490196078431" d="M 767 269 L 808 269 L 808 465.5 L 808.5 466 L 844 466 L 844 499 L 767 499 L 767 269 Z " /><path fill="rgb(30,87,162)" stroke="rgb(30,87,162)" stroke-width="1" opacity="0.9725490196078431" d="M 852 269 Q 912.442 262.817 938 292.5 Q 957.617 313.883 954 358.5 Q 947.95 400.95 920.5 422 Q 909.084 432.282 893 437 L 893 499 L 852 499 L 852 269 Z M 893 304 L 893 400 L 898 398 Q 915 383 917 352 Q 918 325 907 312 Q 902 305 893 304 Z " /><path fill="rgb(30,87,162)" stroke="rgb(30,87,162)" stroke-width="1" opacity="0.9725490196078431" d="M 965 269 L 1004.5 269 L 1006 270.5 L 1006 366.5 L 1006.5 367 L 1031 367 L 1031 269 L 1070.5 269 L 1072 270.5 L 1072 499 L 1031 499 L 1031 399.5 L 1030.5 399 L 1006 399 L 1006 499 L 965 499 L 965 269 Z " /><path fill="rgb(30,87,162)" stroke="rgb(30,87,162)" stroke-width="1" opacity="0.9725490196078431" d="M 1095 269 L 1135.5 269 L 1137 270.5 L 1137 497.5 L 1135.5 499 L 1095.5 499 L 1095 498.5 L 1095 269 Z " /><path fill="rgb(30,87,162)" stroke="rgb(30,87,162)" stroke-width="1" opacity="0.9725490196078431" d="M 115 574 Q 176.586 602.73 245.5 625 Q 305.77 643.73 372.5 656 Q 512.761 682.739 684.5 678 Q 822.176 672.676 938.5 646 Q 989.075 634.575 1035.5 619 Q 1091.481 600.481 1140.5 575 L 1147.5 574 L 1147 575.5 L 1145.5 578 Q 945.346 727.346 590.5 722 Q 291.879 709.621 115 575.5 L 115 574 Z " /><path fill="rgb(0,0,0)" stroke="rgb(0,0,0)" stroke-width="1" opacity="0" d="M 0 0 L 1280 0 L 1280 729 L 0 729 L 0 0 Z M 585 7 Q 528 7 487 22 Q 471 36 461 55 Q 255 84 119 185 Q 114 186 115 191 Q 263 118 463 95 L 479 119 Q 488 130 506 132 Q 552 140 606 141 Q 663 142 715 138 L 716 137 L 724 137 L 725 136 Q 746 136 762 131 L 776 125 Q 790 112 800 95 Q 998 117 1146 191 Q 1149 192 1148 190 Q 1012 85 802 55 L 785 32 Q 778 23 768 18 L 729 11 Q 662 4 585 7 Z M 7 249 L 7 502 L 52 502 L 52 435 Q 72 427 87 413 Q 114 389 119 344 Q 121 293 97 270 Q 68 243 7 249 Z M 1191 249 L 1189 251 L 1185 280 L 1184 281 L 1184 287 L 1183 288 L 1148 501 L 1150 502 L 1189 502 L 1190 500 L 1194 466 L 1195 465 Q 1194 458 1196 458 L 1224 458 L 1229 494 L 1230 495 L 1230 501 L 1232 502 L 1273 502 L 1273 496 L 1272 495 L 1232 251 L 1231 249 L 1191 249 Z M 129 269 L 129 499 L 170 499 L 170 399 L 195 399 L 195 400 L 195 499 L 236 499 L 236 499 L 236 269 L 195 269 L 195 366 L 171 366 L 170 366 L 170 269 L 129 269 Z M 265 269 L 263 271 L 263 499 L 305 499 L 305 499 L 305 271 L 304 269 L 265 269 Z M 332 269 L 332 499 L 333 499 L 400 499 L 401 498 Q 402 481 406 469 L 405 466 L 374 466 L 373 466 L 373 269 L 332 269 Z M 448 269 L 416 467 L 415 468 L 415 474 L 410 499 L 448 499 Q 452 486 452 468 L 453 467 Q 452 460 454 460 L 480 460 L 484 493 L 485 494 Q 484 499 486 499 L 524 499 L 524 493 Q 504 389 489 281 L 488 280 L 488 274 L 487 273 L 487 269 L 448 269 Z M 538 269 L 538 499 Q 586 505 611 486 Q 640 459 642 404 Q 648 330 619 291 Q 596 262 538 269 Z M 659 269 L 659 499 L 746 499 L 746 466 L 700 466 L 700 399 L 744 399 L 745 398 L 745 366 L 700 366 L 700 302 L 746 302 L 746 269 L 659 269 Z M 767 269 L 767 499 L 844 499 L 844 466 L 809 466 L 808 466 L 808 269 L 767 269 Z M 852 269 L 852 499 L 893 499 L 893 437 Q 909 432 921 422 Q 948 401 954 359 Q 958 314 938 293 Q 912 263 852 269 Z M 965 269 L 965 499 L 1006 499 L 1006 399 L 1031 399 L 1031 400 L 1031 499 L 1072 499 L 1072 271 L 1071 269 L 1031 269 L 1031 367 L 1007 367 L 1006 367 L 1006 271 L 1005 269 L 965 269 Z M 1095 269 L 1095 499 L 1096 499 L 1136 499 L 1137 498 L 1137 271 L 1136 269 L 1095 269 Z M 115 574 L 115 576 Q 292 710 591 722 Q 945 727 1146 578 L 1147 576 L 1148 574 L 1141 575 Q 1091 600 1036 619 Q 989 635 939 646 Q 822 673 685 678 Q 513 683 373 656 Q 306 644 246 625 Q 177 603 115 574 Z " /><path fill="rgb(0,0,0)" stroke="rgb(0,0,0)" stroke-width="1" opacity="0" d="M 52 288 Q 61.474 288.274 66 294 Q 79.409 309.365 78 340.5 Q 75.971 374.471 56.5 391 L 52 393 L 52 288 Z " /><path fill="rgb(0,0,0)" stroke="rgb(0,0,0)" stroke-width="1" opacity="0" d="M 893 304 Q 902.292 304.908 907 311.5 Q 918.25 325.25 917 351.5 Q 915.348 382.848 897.5 398 L 893 400 L 893 304 Z " /><path fill="rgb(0,0,0)" stroke="rgb(0,0,0)" stroke-width="1" opacity="0" d="M 579 306 Q 585.1 306.85 588 312.5 Q 605.567 343.933 602 396.5 Q 602.97 440.97 581.5 463 L 579.5 464 L 579 306 Z " /><path fill="rgb(0,0,0)" stroke="rgb(0,0,0)" stroke-width="1" opacity="0" d="M 1209.5 340 Q 1216.439 378.061 1219 420.5 L 1220 423 L 1200.5 423 Q 1199.5 423 1200 418.5 L 1202 409.5 L 1202 400.5 L 1203 399.5 L 1203 391.5 L 1204 390.5 L 1204 382.5 L 1205 381.5 Q 1204.526 358.026 1209.5 340 Z " /><path fill="rgb(0,0,0)" stroke="rgb(0,0,0)" stroke-width="1" opacity="0" d="M 466.5 352 Q 471.91 383.09 474 417.5 L 475 418.5 L 475 427 L 458 427 L 458 420.5 L 459 419.5 L 459 411.5 L 460 410.5 L 460 402.5 L 461 401.5 L 461 393.5 L 462 392.5 L 466.5 352 Z " /></svg>
